<svg width="32" height="32" fill="none" xmlns="http://www.w3.org/2000/svg"><path d="M28.227 2.746a17.466 17.466 0 00-2.893-.254A17.254 17.254 0 0016 5.226a17.253 17.253 0 00-9.333-2.667c-.97.004-1.937.089-2.893.253a1.333 1.333 0 00-1.107 1.334v16a1.333 1.333 0 001.56 1.333 14.531 14.531 0 0111 2.547l.16.093h.147a1.213 1.213 0 00.933 0h.147l.16-.093a14.535 14.535 0 0111-2.694A1.334 1.334 0 0029.334 20V4a1.333 1.333 0 00-1.107-1.253zm-13.56 17.72a17.16 17.16 0 00-8-1.974H5.334V5.16a11.4 11.4 0 011.333 0 14.48 14.48 0 018 2.4v12.906zm12-1.92h-1.333a17.16 17.16 0 00-8 1.973V7.559a14.48 14.48 0 018-2.4 11.4 11.4 0 011.333 0v13.386zm1.56 5.533a17.46 17.46 0 00-2.893-.253A17.253 17.253 0 0016 26.559a17.253 17.253 0 00-9.333-2.733c-.97.003-1.937.088-2.893.253a1.332 1.332 0 00-1.107 1.533 1.333 1.333 0 001.56 1.054 14.533 14.533 0 0111 2.546 1.333 1.333 0 001.547 0 14.531 14.531 0 0111-2.546 1.333 1.333 0 001.56-1.054 1.333 1.333 0 00-1.107-1.533z" fill="#1270EC"/></svg>