<svg xmlns="http://www.w3.org/2000/svg" width="260" height="80" viewBox="0 0 260 80" fill="none">
<circle opacity="0.4" cx="196.25" cy="51.5" r="161.5" fill="#D8E7FC"/>
<circle opacity="0.2" cx="205.25" cy="51.5" r="84.5" fill="#B0D0F9"/>
<rect x="181.75" y="35.5" width="15" height="30" rx="2" fill="#EBF3FD"/>
<rect x="202.75" y="11.5" width="15" height="54" rx="2" fill="#F5F9FE"/>
<rect x="223.75" y="21.5" width="15" height="44" rx="2" fill="#EBF3FD"/>
<path d="M175.25 53.9999C174.283 53.9999 173.458 53.6582 172.775 52.9749C172.092 52.2916 171.75 51.4666 171.75 50.4999C171.75 49.5332 172.092 48.7082 172.775 48.0249C173.458 47.3416 174.283 46.9999 175.25 46.9999C175.417 46.9999 175.583 47.0082 175.75 47.0249C175.917 47.0416 176.133 47.0832 176.4 47.1499L186.4 37.1499C186.333 36.8832 186.292 36.6666 186.275 36.4999C186.258 36.3332 186.25 36.1666 186.25 35.9999C186.25 35.0332 186.592 34.2082 187.275 33.5249C187.958 32.8416 188.783 32.4999 189.75 32.4999C190.717 32.4999 191.542 32.8416 192.225 33.5249C192.908 34.2082 193.25 35.0332 193.25 35.9999C193.25 36.0666 193.2 36.4499 193.1 37.1499L198.6 42.6499C198.867 42.5832 199.083 42.5416 199.25 42.5249C199.417 42.5082 199.583 42.4999 199.75 42.4999C199.917 42.4999 200.083 42.5082 200.25 42.5249C200.417 42.5416 200.633 42.5832 200.9 42.6499L208.9 34.6499C208.833 34.3832 208.792 34.1666 208.775 33.9999C208.758 33.8332 208.75 33.6666 208.75 33.4999C208.75 32.5332 209.092 31.7082 209.775 31.0249C210.458 30.3416 211.283 29.9999 212.25 29.9999C213.217 29.9999 214.042 30.3416 214.725 31.0249C215.408 31.7082 215.75 32.5332 215.75 33.4999C215.75 34.4666 215.408 35.2916 214.725 35.9749C214.042 36.6582 213.217 36.9999 212.25 36.9999C212.083 36.9999 211.917 36.9916 211.75 36.9749C211.583 36.9582 211.367 36.9166 211.1 36.8499L203.1 44.8499C203.167 45.1166 203.208 45.3332 203.225 45.4999C203.242 45.6666 203.25 45.8332 203.25 45.9999C203.25 46.9666 202.908 47.7916 202.225 48.4749C201.542 49.1582 200.717 49.4999 199.75 49.4999C198.783 49.4999 197.958 49.1582 197.275 48.4749C196.592 47.7916 196.25 46.9666 196.25 45.9999C196.25 45.8332 196.258 45.6666 196.275 45.4999C196.292 45.3332 196.333 45.1166 196.4 44.8499L190.9 39.3499C190.633 39.4166 190.417 39.4582 190.25 39.4749C190.083 39.4916 189.917 39.4999 189.75 39.4999C189.683 39.4999 189.3 39.4499 188.6 39.3499L178.6 49.3499C178.667 49.6166 178.708 49.8332 178.725 49.9999C178.742 50.1666 178.75 50.3332 178.75 50.4999C178.75 51.4666 178.408 52.2916 177.725 52.9749C177.042 53.6582 176.217 53.9999 175.25 53.9999ZM177.75 31.8999L176.75 29.6999L174.55 28.6999L176.75 27.6999L177.75 25.4999L178.75 27.6999L180.95 28.6999L178.75 29.6999L177.75 31.8999ZM199.75 29.3499L198.2 26.0499L194.9 24.4999L198.2 22.9499L199.75 19.6499L201.3 22.9499L204.6 24.4999L201.3 26.0499L199.75 29.3499Z" fill="#3A88EF"/>
</svg>
