<svg xmlns="http://www.w3.org/2000/svg" xmlns:xlink="http://www.w3.org/1999/xlink" width="124" height="139"><defs><linearGradient id="A" x1="50%" x2="50%" y1="0%" y2="100%"><stop offset="0%" stop-color="#e7f7ff"/><stop offset="100%" stop-color="#edf5ff"/></linearGradient><path id="B" d="M7 114.2c-4 0-7-2.6-7-5.8V18c0-3.2 3.2-5.8 7-5.8H57c4 0 7 2.6 7 5.8v90.4c0 3.2-3.2 5.8-7 5.8H7z"/><filter id="C" width="198.4%" height="161.8%" x="-49.2%" y="-25%"><feOffset dy="6" in="SourceAlpha"/><feGaussianBlur stdDeviation="9.5"/><feColorMatrix values="0 0 0 0 0 0 0 0 0 0 0 0 0 0 0 0 0 0 0.12 0"/></filter><path id="D" d="M11.5 9l-2-2a.8.8 0 0 0-1.1 0L6.8 8.7 3 5l1.7-1.7a.8.8 0 0 0 0-1.1l-2-2a.8.8 0 0 0-1.1 0L0 2a9.8 9.8 0 0 0 9.8 9.8l1.7-1.7a.8.8 0 0 0 0-1.1z"/><linearGradient id="E" x1="50%" x2="50%" y1=".515%" y2="127.584%"><stop offset="0%" stop-color="#f4f4f4"/><stop offset="100%" stop-color="#f5f5f5"/></linearGradient><circle id="F" cx="18.4" cy="18.4" r="18.4"/><linearGradient id="G" x1="50%" x2="50%" y1="0%" y2="100%"><stop offset="0%" stop-color="#ffc62c" stop-opacity="0"/><stop offset="100%" stop-color="#ff6663" stop-opacity=".1"/></linearGradient><path id="H" d="M12.4 11.8c.8.3 1.4 1 1.4 2 0 1-.6 1.8-1.5 2-.5 2.8-4 5-5.7 5-2 0-5.8-2.5-5.8-5.6l.3-2.3a67 67 0 0 0-.3-2.4c0-3 2.6-5.6 5.8-5.6s5.8 2.5 5.8 5.6v1.5z"/><linearGradient id="I" x1="50%" x2="50%" y1="0%" y2="100%"><stop offset="0%" stop-color="#1f1845" stop-opacity="0"/><stop offset="100%" stop-opacity=".2"/></linearGradient><path id="J" d="M12.2 15.7c0-.6.2-1.2.5-2a3.2 3.2 0 0 1-1.6-2.8c0-.3 0-.5.1-.8a3.1 3.1 0 0 1-.1 0c-1.6 0-3-1.2-3-2.8a3.5 3.5 0 0 1-1.6.4A3.5 3.5 0 0 1 4.3 7a1.9 1.9 0 0 1-2-.2C1.7 7.6 1 8.7.8 9.6 0 9 0 7.6 0 6.5 0 4.7 1.4 3.2 3.2 3A3.6 3.6 0 0 1 6.5.7c.6 0 1.2.2 1.7.5A4.3 4.3 0 0 1 11.1 0c2.3 0 4.2 1.8 4.3 4a3.6 3.6 0 0 1 2.9 3.6c0 1-.4 2-1 2.6.1.3.1.5.1.8a3.2 3.2 0 0 1-1.3 2.6c0 .2.1.4.1.6 0 2-1.5 2.7-2.4 2.7s-1.5-.3-1.5-1z"/><linearGradient id="K" x1="64.016%" x2="0%" y1="42.162%" y2="64.497%"><stop offset="0%" stop-opacity=".1"/><stop offset="100%" stop-color="#ff6663" stop-opacity="0"/></linearGradient></defs><g fill="none" fill-rule="evenodd"><g fill="#c7f2c6"><path d="M29.8 110C26.6 97 19.4 85 9.4 76l.4-.5c10 9 17.4 21 20.7 34l-.7.2z"/><path d="M29 91.5c1.4-2.4.2-5.7.2-5.7s-3.5.5-5 3-.2 5.7-.2 5.7 3.5-.5 5-3m-10.7-2c-2.8-.2-5.2 2.3-5.2 2.3s2 3 4.8 3.2 5.2-2.3 5.2-2.3-2-3-4.8-3.2M14.7 83c-2.4-.2-4.5 2-4.5 2s1.7 2.5 4 2.7 4.5-2 4.5-2-1.7-2.5-4-2.7m8 .1c.8-2-.6-4.6-.6-4.6s-2.8 1-3.6 3S19 86 19 86s2.8-1 3.6-3m-6.2-6c.7-1.8-.5-4-.5-4s-2.3.7-3 2.5.5 4 .5 4 2.3-.7 3-2.5m-7 .6c-2 .3-3 2.5-3 2.5S8 82 10 81.5s3-2.5 3-2.5-1.8-1.6-3.7-1.3m-.1-5c-1.4-1.3-3.8-1-3.8-1s-.2 2.4 1.2 3.7 3.8 1 3.8 1 .2-2.4-1.2-3.7m14 25.5c-2.8-.7-6 1.5-6 1.5s1.6 3.5 4.4 4.2 6-1.5 6-1.5-1.6-3.5-4.4-4.2m10.3 1.6c1.5-2.5.2-6 .2-6s-3.8.5-5.3 3-.2 6-.2 6 3.8-.5 5.3-3"/></g><path fill="url(#A)" d="M115.2 72c4.4 0 8-3.6 8-8s-3.6-8-8-8c-1 0-2 .2-2.8.5-.2-4.2-3.7-7.6-8-7.6-4 0-7.5 3-8 7a7.9 7.9 0 0 0-2.3-.3c-4.4 0-8 3.6-8 8s3.5 8 8 8l21 .2z"/><path fill="url(#A)" d="M22.7 39.8c3 0 5.6-2.5 5.6-5.6s-2.5-5.6-5.6-5.6c-.7 0-1.4.1-2 .4-.1-3-2.6-5.3-5.6-5.3-3 0-5.3 2.2-5.6 5a5.7 5.7 0 0 0-1.6-.2c-3 0-5.6 2.5-5.6 5.6s2.5 5.6 5.6 5.6l14.8.2z"/><g fill="#c7f2c6"><path d="M82.6 105.3c8.5-8.3 19.6-14 31.3-15.8v.6c-11.6 2-22.5 7.6-31 15.8l-.5-.5z"/><path d="M92.2 92.4c.1-2.4 2.5-4.4 2.5-4.4s2.4 2 2.4 4.5-2.5 4.4-2.5 4.4-2.4-2-2.3-4.5m9 3.4c2.2 1 2.8 4.2 2.8 4.2s-3 1.3-5 .2S96 96 96 96s3-1.3 5-.2m5.7-3c2 1 2.4 3.6 2.4 3.6s-2.5 1-4.3.1-2.4-3.6-2.4-3.6 2.5-1 4.3-.1m-6-3.6c.3-2 2.6-3.2 2.6-3.2s1.7 2 1.3 4-2.6 3.2-2.6 3.2-1.7-2-1.3-4m7.4-1.5c.3-1.6 2.2-2.7 2.2-2.7s1.4 1.6 1 3.3-2.2 2.7-2.2 2.7-1.4-1.6-1-3.3m5 3.8c1.2 1 1 3.3 1 3.3s-2 .3-3.4-.8-1-3.3-1-3.3 2-.3 3.4.8m2.4-3.6c1.6-.3 3.3 1 3.3 1s-1 2-2.7 2.2-3.3-1-3.3-1 1-2 2.7-2.2"/></g><path d="M9.8 53l.7 1.5a.2.2 0 0 0 .1.1l1.5.7a.2.2 0 0 1 0 .4l-1.5.7a.2.2 0 0 0-.1.1L9.8 58a.2.2 0 0 1-.4 0l-.7-1.5a.2.2 0 0 0-.1-.1L7 55.7a.2.2 0 0 1 0-.4l1.5-.7a.2.2 0 0 0 .1-.1l.7-1.5a.2.2 0 0 1 .4 0m-8-2.4l.4 1s0 .1.1.1l1 .4a.1.1 0 0 1 0 .2l-1 .4a.1.1 0 0 0-.1.1l-.4 1a.1.1 0 0 1-.2 0l-.4-1a.1.1 0 0 0-.1-.1l-1-.4a.1.1 0 0 1 0-.2l1-.4a.1.1 0 0 0 .1-.1l.4-1a.1.1 0 0 1 .2 0m108-38.2l.8 1.8a.3.3 0 0 0 .1.1l1.8.8a.3.3 0 0 1 0 .5l-1.8.8a.3.3 0 0 0-.1.1l-.8 1.8a.3.3 0 0 1-.5 0l-.8-1.8a.3.3 0 0 0-.1-.1l-1.8-.8a.3.3 0 0 1 0-.5l1.8-.8a.3.3 0 0 0 .1-.1l.8-1.8a.3.3 0 0 1 .5 0m3-10l.4 1a.1.1 0 0 0 .1.1l1 .4a.1.1 0 0 1 0 .2l-1 .4a.1.1 0 0 0-.1.1l-.4 1a.1.1 0 0 1-.2 0l-.4-1a.1.1 0 0 0-.1-.1l-1-.4a.1.1 0 0 1 0-.2l1-.4a.1.1 0 0 0 .1-.1l.4-1a.1.1 0 0 1 .2 0m-10-2.3l.7 1.4 1.3.6a.2.2 0 0 1 0 .4l-1.3.6a.2.2 0 0 0-.1.1l-.6 1.3a.2.2 0 0 1-.4 0l-.6-1.3a.2.2 0 0 0-.1-.1l-1.3-.6a.2.2 0 0 1 0-.4l1.3-.6a.2.2 0 0 0 .1-.1l.6-1.3a.2.2 0 0 1 .4 0" fill="#eef0f1"/><g transform="translate(23)"><use fill="#000" filter="url(#C)" xlink:href="#B"/><use fill="#fff" xlink:href="#B"/></g><path fill="#ebebeb" d="M36 76.5h39a3.1 3.1 0 0 1 0 6.1H36a3.1 3.1 0 0 1 0-6.1z"/><path fill="#ffc7c7" d="M37 87.2h36.7a4.2 4.2 0 1 1 0 8.4H37a4.2 4.2 0 1 1 0-8.4z"/><g transform="translate(71.9)"><rect width="23.9" height="24" fill="#e00000" rx="12"/><g transform="translate(6.1 6)"><mask id="L" fill="#fff"><use xlink:href="#D"/></mask><use fill="#e00000" xlink:href="#D"/><g fill="#fff" mask="url(#L)"><path d="M0 0h12v12H0z"/></g></g></g><g transform="translate(37.5 30.6)"><mask id="M" fill="#fff"><use xlink:href="#F"/></mask><use fill="url(#E)" transform="matrix(-1 0 0 1 36.72 0)" xlink:href="#F"/><path fill="#fcbb91" d="M21 20.7c0 2.5 1 4 3.4 4.6s-.1 1.4-7.3 2.7l-3.8-1.5V25c1.5-1.8 2.3-3.3 2.3-4.6s1.8-1 5.4.4z" mask="url(#M)"/><g mask="url(#M)"><g transform="translate(10.7 2.3)"><use fill="#fcbb91" xlink:href="#H"/><use fill="url(#G)" xlink:href="#H"/><use fill="#626465" xlink:href="#J"/><use fill="url(#I)" xlink:href="#J"/></g><path fill="url(#K)" d="M22.2 14.5H22c-1.5 0-2.8-1.2-3-2.8-.5.2-1 .4-1.5.4-.8 0-1.6-.3-2.2-.8-.6.4-1.4.3-2-.2-.5.7-.8 1.5-1 2.4l-.1-.8c0-1.3.4-2.5 1-3.5.6.5 1.4.5 2 .2.6.5 1.3.8 2.2.8.5 0 1-.1 1.5-.4.2 1.6 1.4 2.8 3 2.8h.1c-.1.3 0 .5 0 .8.1 1.2.2 1.2.1 1.2z"/></g><g fill-rule="nonzero" mask="url(#M)"><path fill="#b6b8b9" d="M31.2 29.3C32 31 32.6 33.5 33 37H3.7c.4-3.6 1-6.3 1.8-7.8s3.4-3 8-4.6c1.3 2.7 8.5 2.7 9.8 0 4.5 1.5 7.2 3 8 4.6z"/><path fill="#fff" d="M18.4 33.5a.5.5 0 1 1 0 1 .5.5 0 0 1 0-1zm0-2.4a.5.5 0 1 1 0 1 .5.5 0 0 1 0-1zm0-2.4a.5.5 0 1 1 0 1 .5.5 0 0 1 0-1z"/></g></g></g></svg>