<svg width="18" height="20" viewBox="0 0 18 20" fill="none" xmlns="http://www.w3.org/2000/svg">
<path d="M5.18341 12.9499C5.0282 13.106 4.94108 13.3173 4.94108 13.5374C4.94108 13.7576 5.0282 13.9688 5.18341 14.1249C5.26088 14.203 5.35305 14.265 5.4546 14.3073C5.55615 14.3496 5.66507 14.3714 5.77508 14.3714C5.88509 14.3714 5.99401 14.3496 6.09556 14.3073C6.19711 14.265 6.28928 14.203 6.36674 14.1249C6.52195 13.9688 6.60907 13.7576 6.60907 13.5374C6.60907 13.3173 6.52195 13.106 6.36674 12.9499C6.28928 12.8718 6.19711 12.8098 6.09556 12.7675C5.99401 12.7252 5.88509 12.7034 5.77508 12.7034C5.66507 12.7034 5.55615 12.7252 5.4546 12.7675C5.35305 12.8098 5.26088 12.8718 5.18341 12.9499ZM5.18341 5.87491C5.0282 6.03105 4.94108 6.24226 4.94108 6.46241C4.94108 6.68257 5.0282 6.89378 5.18341 7.04991C5.26088 7.12802 5.35305 7.19001 5.4546 7.23232C5.55615 7.27463 5.66507 7.29641 5.77508 7.29641C5.88509 7.29641 5.99401 7.27463 6.09556 7.23232C6.19711 7.19001 6.28928 7.12802 6.36674 7.04991C6.52195 6.89378 6.60907 6.68257 6.60907 6.46241C6.60907 6.24226 6.52195 6.03105 6.36674 5.87491C6.28928 5.79681 6.19711 5.73481 6.09556 5.6925C5.99401 5.6502 5.88509 5.62841 5.77508 5.62841C5.66507 5.62841 5.55615 5.6502 5.4546 5.6925C5.35305 5.73481 5.26088 5.79681 5.18341 5.87491ZM9.30841 14.2082C9.14359 14.2082 8.98248 14.2571 8.84544 14.3487C8.7084 14.4403 8.60158 14.5704 8.53851 14.7227C8.47544 14.8749 8.45894 15.0425 8.49109 15.2042C8.52324 15.3658 8.60261 15.5143 8.71916 15.6308C8.8357 15.7474 8.98418 15.8267 9.14584 15.8589C9.30749 15.8911 9.47504 15.8746 9.62731 15.8115C9.77959 15.7484 9.90973 15.6416 10.0013 15.5046C10.0929 15.3675 10.1417 15.2064 10.1417 15.0416C10.1474 14.9287 10.13 14.8158 10.0907 14.7099C10.0513 14.6039 9.99085 14.507 9.9129 14.4252C9.83495 14.3433 9.74116 14.2782 9.63724 14.2338C9.53332 14.1893 9.42144 14.1664 9.30841 14.1666V14.2082ZM4.30841 9.20825C4.14359 9.20825 3.98248 9.25712 3.84544 9.34869C3.7084 9.44026 3.60158 9.5704 3.53851 9.72268C3.47544 9.87495 3.45894 10.0425 3.49109 10.2042C3.52324 10.3658 3.60261 10.5143 3.71916 10.6308C3.8357 10.7474 3.98419 10.8267 4.14584 10.8589C4.30749 10.8911 4.47504 10.8746 4.62731 10.8115C4.77959 10.7484 4.90973 10.6416 5.0013 10.5046C5.09287 10.3675 5.14174 10.2064 5.14174 10.0416C5.1474 9.92869 5.13002 9.81583 5.09068 9.70986C5.05134 9.6039 4.99085 9.50705 4.9129 9.4252C4.83495 9.34335 4.74116 9.27821 4.63724 9.23375C4.53332 9.18929 4.42144 9.16644 4.30841 9.16658V9.20825ZM9.30841 4.20825C9.14359 4.20825 8.98248 4.25712 8.84544 4.34869C8.7084 4.44026 8.60158 4.5704 8.53851 4.72268C8.47544 4.87495 8.45894 5.0425 8.49109 5.20415C8.52324 5.36581 8.60261 5.51429 8.71916 5.63083C8.8357 5.74738 8.98418 5.82675 9.14584 5.8589C9.30749 5.89105 9.47504 5.87455 9.62731 5.81148C9.77959 5.7484 9.90973 5.64159 10.0013 5.50455C10.0929 5.36751 10.1417 5.2064 10.1417 5.04158C10.1474 4.92869 10.13 4.81583 10.0907 4.70987C10.0513 4.6039 9.99085 4.50705 9.9129 4.4252C9.83495 4.34335 9.74116 4.27821 9.63724 4.23375C9.53332 4.18929 9.42144 4.16644 9.30841 4.16658V4.20825ZM12.2584 5.91658C12.1414 6.03292 12.0615 6.1814 12.029 6.34319C11.9964 6.50497 12.0126 6.67278 12.0755 6.82534C12.1385 6.9779 12.2453 7.10834 12.3824 7.20013C12.5196 7.29192 12.6809 7.34092 12.8459 7.34092C13.0109 7.34092 13.1723 7.29192 13.3094 7.20013C13.4465 7.10834 13.5534 6.9779 13.6163 6.82534C13.6792 6.67278 13.6954 6.50497 13.6629 6.34319C13.6303 6.1814 13.5505 6.03292 13.4334 5.91658C13.2829 5.75571 13.0747 5.66101 12.8545 5.6532C12.6343 5.64539 12.42 5.72511 12.2584 5.87491V5.91658ZM17.5084 5.91658C16.7465 4.39349 15.5754 3.11276 14.1264 2.218C12.6774 1.32323 11.0078 0.849814 9.30475 0.850832C7.60174 0.851849 5.93268 1.32726 4.48473 2.22376C3.03678 3.12025 1.86721 4.40238 1.10714 5.92638C0.347084 7.45037 0.0265948 9.15597 0.181615 10.8519C0.336636 12.5479 0.961037 14.1671 1.9848 15.528C3.00856 16.889 4.39121 17.9378 5.97769 18.5569C7.56418 19.1761 9.29177 19.341 10.9667 19.0332C11.3879 18.954 11.7891 18.7916 12.1468 18.5555C12.5045 18.3194 12.8116 18.0144 13.0501 17.6582C13.307 17.2711 13.4843 16.8366 13.5716 16.3802C13.6589 15.9238 13.6544 15.4546 13.5584 14.9999C13.5059 14.7252 13.478 14.4463 13.4751 14.1666C13.4787 13.359 13.717 12.57 14.1608 11.8953C14.6046 11.2207 15.235 10.6896 15.9751 10.3666C16.3741 10.1879 16.7323 9.92935 17.0276 9.60686C17.3228 9.28438 17.5489 8.90481 17.6917 8.49158C17.8362 8.06932 17.8945 7.62234 17.863 7.17715C17.8315 6.73196 17.7109 6.29763 17.5084 5.89991V5.91658ZM16.0917 7.94991C16.0206 8.14934 15.9102 8.33249 15.7671 8.48851C15.624 8.64452 15.451 8.77025 15.2584 8.85824C14.2334 9.31708 13.3626 10.062 12.7506 11.0037C12.1386 11.9453 11.8115 13.0436 11.8084 14.1666C11.8096 14.5583 11.8487 14.949 11.9251 15.3332C11.976 15.5681 11.9793 15.8107 11.935 16.0469C11.8906 16.283 11.7994 16.5079 11.6667 16.7082C11.5545 16.8836 11.4068 17.0335 11.2331 17.1483C11.0595 17.2631 10.8637 17.3403 10.6584 17.3749C10.2133 17.4586 9.76132 17.5004 9.30841 17.4999C8.30355 17.5004 7.30884 17.299 6.38335 16.9075C5.45786 16.5161 4.62046 15.9427 3.92088 15.2214C3.2213 14.5 2.67381 13.6455 2.31092 12.7084C1.94804 11.7714 1.77715 10.771 1.80841 9.76658C1.87309 7.89391 2.63258 6.11237 3.93894 4.76905C5.24529 3.42572 7.00494 2.61681 8.87508 2.49991H9.30008C10.6965 2.50026 12.0652 2.89048 13.2518 3.62663C14.4385 4.36278 15.3961 5.41562 16.0167 6.66658C16.2078 7.0624 16.2347 7.51765 16.0917 7.93325V7.94991ZM9.30841 9.16658C9.14359 9.16658 8.98248 9.21545 8.84544 9.30702C8.7084 9.39859 8.60158 9.52874 8.53851 9.68101C8.47544 9.83328 8.45894 10.0008 8.49109 10.1625C8.52324 10.3241 8.60261 10.4726 8.71916 10.5892C8.8357 10.7057 8.98418 10.7851 9.14584 10.8172C9.30749 10.8494 9.47504 10.8329 9.62731 10.7698C9.77959 10.7067 9.90973 10.5999 10.0013 10.4629C10.0929 10.3258 10.1417 10.1647 10.1417 9.99991C10.1417 9.7789 10.0539 9.56694 9.89767 9.41066C9.74139 9.25438 9.52942 9.16658 9.30841 9.16658Z" fill="#23262A"/>
</svg>
