<svg width="20" height="20" viewBox="0 0 20 20" fill="none" xmlns="http://www.w3.org/2000/svg">
<path d="M15.8335 11.6673V5.00065C15.8335 4.08398 15.0835 3.33398 14.1668 3.33398H2.50016C1.5835 3.33398 0.833496 4.08398 0.833496 5.00065V11.6673C0.833496 12.584 1.5835 13.334 2.50016 13.334H14.1668C15.0835 13.334 15.8335 12.584 15.8335 11.6673ZM14.1668 11.6673H2.50016V5.00065H14.1668V11.6673ZM8.3335 5.83398C6.95016 5.83398 5.8335 6.95065 5.8335 8.33398C5.8335 9.71732 6.95016 10.834 8.3335 10.834C9.71683 10.834 10.8335 9.71732 10.8335 8.33398C10.8335 6.95065 9.71683 5.83398 8.3335 5.83398ZM19.1668 5.83398V15.0006C19.1668 15.9173 18.4168 16.6673 17.5002 16.6673H3.3335C3.3335 15.834 3.3335 15.9173 3.3335 15.0006H17.5002V5.83398C18.4168 5.83398 18.3335 5.83398 19.1668 5.83398Z" fill="#8A8F9C"/>
</svg>
