<svg width="18" height="18" viewBox="0 0 20 20" fill="none" xmlns="http://www.w3.org/2000/svg">
<path fill-rule="evenodd" clip-rule="evenodd" d="M11.6136 1.43812C11.142 0.945345 10.4896 0.666656 9.80749 0.666656H3.16699C1.78628 0.666656 0.666992 1.78594 0.666992 3.16666V14.8333C0.666992 16.214 1.78628 17.3333 3.16699 17.3333H13.4296C14.5147 17.3333 15.476 16.6332 15.809 15.6004L17.7097 9.7044C17.9914 8.83039 17.7713 7.87225 17.1364 7.20882L11.6136 1.43812ZM2.33366 3.16666V14.8333C2.33366 15.2936 2.70675 15.6667 3.16699 15.6667H13.4296C13.7913 15.6667 14.1117 15.4333 14.2227 15.089L16.1234 9.19303C16.2173 8.9017 16.1439 8.58232 15.9323 8.36117L10.4095 2.59048C10.2523 2.42622 10.0349 2.33332 9.80749 2.33332H3.16699C2.70676 2.33332 2.33366 2.70642 2.33366 3.16666Z" fill="#23262A"/>
<path d="M4.00033 7.33332V4.83332C4.00033 4.37309 4.37342 3.99999 4.83366 3.99999H9.48848C9.70949 3.99999 9.92146 4.08779 10.0777 4.24407L12.5777 6.74407C13.1027 7.26904 12.7309 8.16666 11.9885 8.16666H4.83366C4.37342 8.16666 4.00033 7.79356 4.00033 7.33332Z" fill="#23262A"/>
<path d="M4.83366 10.6667C4.83366 10.2064 5.20675 9.83332 5.66699 9.83332H7.33366C7.7939 9.83332 8.16699 10.2064 8.16699 10.6667C8.16699 11.1269 7.7939 11.5 7.33366 11.5H5.66699C5.20675 11.5 4.83366 11.1269 4.83366 10.6667Z" fill="#23262A"/>
</svg>
