<svg width="48" height="15" viewBox="0 0 48 15" fill="none" xmlns="http://www.w3.org/2000/svg">
<path fill-rule="evenodd" clip-rule="evenodd" d="M31.7129 8.7812C31.478 8.96743 31.3186 9.22923 31.0533 9.56607C30.7877 9.90329 30.4957 10.2778 30.1936 10.6901C29.8913 11.1026 29.583 11.5477 29.2767 11.9955C28.9705 12.4433 28.6907 12.8305 28.4457 13.2941H31.7912V14.6078H26.6232V13.6099C26.8581 13.2554 27.0445 12.8696 27.314 12.4527C27.5835 12.0359 27.8697 11.617 28.1556 11.1957C28.4415 10.7745 28.7295 10.3594 29.0113 9.97801C29.2932 9.59698 29.5484 9.27591 29.769 8.96681H26.7798V7.65317H31.7129V8.7812Z" fill="#17191C"/>
<path fill-rule="evenodd" clip-rule="evenodd" d="M37.8206 8.7812C37.6639 8.96743 37.4503 9.22923 37.1861 9.56607C36.9219 9.90329 36.6422 10.2778 36.3414 10.6901C36.0406 11.1026 35.7393 11.5477 35.4343 11.9955C35.1296 12.4433 34.8566 12.8305 34.6127 13.2941H37.8989V14.6078H32.8091V13.6099C33.044 13.2554 33.2232 12.8696 33.4915 12.4527C33.7597 12.0359 34.042 11.617 34.3267 11.1957C34.6111 10.7745 34.8965 10.3594 35.177 9.97801C35.4575 9.59698 35.7104 9.27591 35.9298 8.96681H32.9657V7.65317H37.8206V8.7812Z" fill="#17191C"/>
<path fill-rule="evenodd" clip-rule="evenodd" d="M40.7178 4.40777C40.7178 4.40769 40.7065 4.40723 40.7028 4.40723C40.4479 4.40723 39.334 4.60682 39.0801 4.85696C39.0796 4.8575 39.0734 4.85943 39.0734 4.86012V14.6077H40.7178V4.40777Z" fill="#17191C"/>
<path fill-rule="evenodd" clip-rule="evenodd" d="M46.3662 10.435C46.3662 10.2032 46.3346 10.0072 46.2718 9.80761C46.2088 9.60809 46.1168 9.43755 45.9954 9.29119C45.8742 9.14491 45.7259 9.0307 45.5506 8.9464C45.3754 8.86217 45.1664 8.82044 44.9238 8.82044C44.6721 8.82044 44.4519 8.86735 44.2633 8.96046C44.0746 9.05373 43.915 9.17582 43.7848 9.3265C43.6544 9.47734 43.5533 9.64587 43.4815 9.84076C43.4095 10.0359 43.36 10.2032 43.3332 10.435H46.3662ZM41.6347 11.1623C41.6347 10.5505 41.7268 10.0141 41.9111 9.55268C42.0951 9.09175 42.3401 8.70816 42.6458 8.40216C42.9511 8.09616 43.3016 7.86573 43.6972 7.71041C44.0925 7.5554 44.4969 7.47767 44.9103 7.47767C45.8809 7.47767 46.6379 7.77478 47.1816 8.36894C47.7254 8.96309 47.9973 9.85003 47.9973 11.0293C47.9973 11.1181 47.9948 11.2008 47.9904 11.3117C47.9859 11.4226 47.9792 11.5168 47.9702 11.5941H43.3196C43.3647 12.2123 43.5645 12.602 43.9195 12.9079C44.2744 13.2139 44.7891 13.3754 45.463 13.3754C45.8583 13.3754 46.2199 13.3443 46.5481 13.2732C46.8761 13.2023 47.1344 13.129 47.3231 13.0492L47.5389 14.3672C47.4489 14.4116 47.3253 14.4587 47.1683 14.5074C47.0109 14.5563 46.8312 14.6008 46.6289 14.6407C46.4267 14.6807 46.2088 14.714 45.9753 14.7406C45.7415 14.7672 45.5034 14.7805 45.2608 14.7805C44.6408 14.7805 44.1014 14.6896 43.6433 14.5079C43.1849 14.3262 42.8075 14.0735 42.511 13.7498C42.2142 13.4262 41.9941 13.0447 41.8504 12.6057C41.7065 12.1668 41.6347 11.6857 41.6347 11.1623Z" fill="#17191C"/>
<path fill-rule="evenodd" clip-rule="evenodd" d="M12.2153 7.65315V11.2954C12.2153 12.0403 12.1218 12.5725 11.9015 12.8917C11.682 13.2101 11.3075 13.3694 10.7617 13.3704C10.216 13.3694 9.85057 13.2101 9.63109 12.8917C9.41074 12.5725 9.31811 12.0403 9.31811 11.2954V7.65315H7.67374V11.5482C7.67374 12.0182 7.71657 12.4507 7.81554 12.8451C7.91421 13.2398 8.0752 13.5791 8.30431 13.8627C8.53335 14.1467 8.83725 14.3657 9.21937 14.5254C9.6011 14.6849 10.2035 14.7623 10.7697 14.7623H10.7702C11.3365 14.7623 11.9403 14.6849 12.3221 14.5254C12.7043 14.3657 13.0097 14.1455 13.2388 13.8615C13.468 13.5778 13.6224 13.2392 13.7211 12.8445C13.82 12.4501 13.8597 12.0182 13.8597 11.5482V7.65315H12.2153Z" fill="#17191C"/>
<path fill-rule="evenodd" clip-rule="evenodd" d="M1.67146 11.1092C1.67146 10.4264 1.80857 9.88544 2.08264 9.48633C2.35685 9.08721 2.79034 8.88762 3.38349 8.88762C3.65293 8.88762 3.89708 8.92757 4.13513 9.00747C4.37332 9.08721 4.5416 9.176 4.69821 9.27344V13.2774C4.6199 13.3042 4.44082 13.3287 4.2565 13.3507C4.0724 13.3729 3.8548 13.3839 3.59413 13.3839C2.99221 13.3839 2.52286 13.1824 2.18122 12.7785C1.83966 12.3751 1.67146 11.8187 1.67146 11.1092ZM0.249396 12.6456C0.415713 13.0936 0.653755 13.4769 0.96368 13.7963C1.27376 14.1155 1.64915 14.3596 2.08937 14.5279C2.52967 14.6963 3.02838 14.7805 3.58551 14.7805C4.12487 14.7805 4.63611 14.7407 5.12574 14.6609C5.61577 14.5812 6.02936 14.4926 6.34258 14.3948V4.40778C6.07697 4.40724 4.96091 4.60684 4.70705 4.85697C4.70651 4.85744 4.69821 7.88986 4.69821 7.88986C4.5416 7.7925 4.28813 7.70371 4.01391 7.62397C3.73985 7.54399 3.44144 7.50412 3.10888 7.50412C2.61463 7.50412 2.17449 7.59059 1.78367 7.7636C1.39278 7.93646 1.06829 8.18258 0.807387 8.50187C0.546871 8.82108 0.347667 9.20482 0.208365 9.65247C0.0689853 10.1005 0 10.5949 0 11.1358C0 11.6946 0.0831582 12.1979 0.249396 12.6456Z" fill="#17191C"/>
<path fill-rule="evenodd" clip-rule="evenodd" d="M19.3562 12.7785C19.0146 13.1824 18.5427 13.3839 17.9408 13.3839C17.6801 13.3839 17.4643 13.3728 17.2802 13.3507C17.0958 13.3286 16.9136 13.3042 16.8353 13.2774V9.27343C16.9919 9.17599 17.1633 9.0872 17.4015 9.00746C17.6396 8.92756 17.8902 8.88761 18.1597 8.88761C18.7528 8.88761 19.1847 9.0872 19.4589 9.48632C19.7329 9.88544 19.8693 10.4263 19.8693 11.1092C19.8693 11.8187 19.6977 12.3751 19.3562 12.7785ZM21.3309 9.65246C21.1916 9.20481 20.9918 8.82108 20.7312 8.50186C20.4703 8.18257 20.1447 7.93645 19.7538 7.76359C19.3629 7.59058 18.9203 7.50411 18.4261 7.50411C18.0935 7.50411 17.796 7.54398 17.5219 7.62396C17.2485 7.70347 16.9919 7.79203 16.8353 7.88908V4.40778C16.8353 4.4077 16.8175 4.40723 16.8138 4.40723C16.559 4.40723 15.4483 4.60683 15.1943 4.85696C15.1939 4.85751 15.1909 4.85944 15.1909 4.86013V14.3948C15.5041 14.4926 15.9209 14.5812 16.4109 14.6609C16.9006 14.7407 17.415 14.7805 17.9544 14.7805C18.5115 14.7805 19.0102 14.6963 19.4505 14.5279C19.8907 14.3596 20.2661 14.1155 20.5762 13.7963C20.8861 13.4769 21.1242 13.0936 21.2905 12.6456C21.4567 12.1979 21.5399 11.6946 21.5399 11.1358C21.5399 10.5949 21.4703 10.1005 21.3309 9.65246Z" fill="#17191C"/>
<path fill-rule="evenodd" clip-rule="evenodd" d="M23.9751 7.65319C23.9751 7.65319 23.2157 7.64801 22.998 7.78656C22.7388 7.95146 22.583 8.17517 22.5823 8.46726C22.5817 8.7422 22.6718 10.936 22.7082 11.1503C22.7445 11.3647 22.9696 11.2228 23.0662 11.7694C23.1627 12.3158 23.3935 14.6488 23.4512 14.7058C23.5355 14.789 23.9044 14.8554 23.9891 14.8554C24.0739 14.8554 24.4426 14.789 24.5269 14.7058C24.5847 14.6488 24.8151 12.3158 24.9115 11.7694C25.0082 11.2228 25.2324 11.3647 25.2688 11.1503C25.3051 10.936 25.3934 8.7422 25.3929 8.46726C25.3922 8.17517 25.2327 7.95146 24.9736 7.78656C24.7711 7.65767 24.0934 7.65319 24.0001 7.65319C23.993 7.65319 23.9609 7.65319 23.9609 7.65319" fill="#17191C"/>
<path fill-rule="evenodd" clip-rule="evenodd" d="M24.9462 6.41812C24.9462 6.9299 24.5256 7.34424 24.0088 7.34424C23.4903 7.34424 23.0708 6.9299 23.0708 6.41812C23.0708 5.90773 23.4903 5.49347 24.0088 5.49347C24.5256 5.49347 24.9462 5.90773 24.9462 6.41812Z" fill="#17191C"/>
<path fill-rule="evenodd" clip-rule="evenodd" d="M23.4824 2.98947C23.9749 2.58533 24.7364 1.8367 24.7362 1.26573C24.736 0.397107 24.2647 0 24.2647 0C24.2647 0 24.4698 0.686185 22.8654 2.14294C21.4843 3.397 21.6792 4.54041 21.6838 4.61436C21.7279 5.31724 22.0215 6.13178 22.5408 6.47232C22.3365 6.16462 22.2157 5.79587 22.2048 5.40572C22.2055 5.2895 22.101 4.12754 23.4824 2.98947Z" fill="#E00000"/>
<path fill-rule="evenodd" clip-rule="evenodd" d="M26.1003 5.50924C26.0727 4.81633 25.8484 4.76077 25.588 4.14614C25.2197 3.15805 25.8487 2.31315 25.15 1.26378C24.9357 2.60145 23.9252 2.98991 23.1898 3.84725C22.6151 4.51729 22.4603 5.38058 22.7379 5.98656C22.9199 5.46713 23.4204 5.09297 24.0081 5.09297C24.7488 5.09297 25.3514 5.68736 25.3514 6.41805C25.3514 6.68719 25.2695 6.93779 25.1295 7.14712C25.7695 6.91986 26.1266 6.17178 26.1003 5.50924Z" fill="#E00000"/>
</svg>
