<?xml version="1.0" encoding="utf-8"?>
<!-- Generator: Adobe Illustrator 25.4.1, SVG Export Plug-In . SVG Version: 6.00 Build 0)  -->
<svg version="1.1" id="Layer_1" xmlns="http://www.w3.org/2000/svg" xmlns:xlink="http://www.w3.org/1999/xlink" x="0px" y="0px"
	 viewBox="0 0 973.2 223.98" style="enable-background:new 0 0 973.2 223.98;" xml:space="preserve">
<style type="text/css">
	.st0{fill:#212223;}
	.st1{fill-rule:evenodd;clip-rule:evenodd;fill:#E00000;}
	.st2{fill:#E00000;}
</style>
<g>
	<path class="st0" d="M433.22,127.49c-3,2.41-5.03,5.8-8.42,10.16c-3.39,4.36-7.12,9.21-10.98,14.55
		c-3.86,5.34-7.8,11.1-11.71,16.89c-3.91,5.8-7.48,10.8-10.61,16.8h42.72v17h-66v-12.91c3-4.59,5.38-9.58,8.82-14.98
		c3.44-5.39,7.1-10.81,10.75-16.27c3.65-5.45,7.33-10.82,10.93-15.76c3.6-4.93,6.86-9.09,9.68-13.09h-38.17v-17h63V127.49z"/>
	<path class="st0" d="M511.22,127.49c-2,2.41-4.73,5.8-8.1,10.16c-3.38,4.36-6.95,9.21-10.79,14.55
		c-3.84,5.34-7.69,11.1-11.58,16.89c-3.89,5.8-7.38,10.8-10.49,16.8h41.97v17h-65v-12.91c3-4.59,5.29-9.58,8.71-14.98
		c3.43-5.39,7.03-10.81,10.67-16.27c3.63-5.45,7.28-10.82,10.86-15.76c3.58-4.93,6.81-9.09,9.61-13.09h-37.85v-17h62V127.49z"/>
	<path class="st0" d="M548.22,70.9c0,0-0.14-0.01-0.19-0.01c-3.25,0-17.48,2.58-20.72,5.82c-0.01,0.01-0.09,0.03-0.09,0.04V202.9h21
		V70.9z"/>
	<path class="st0" d="M559.93,158.31c0-7.92,1.18-14.86,3.53-20.83c2.35-5.97,5.48-10.93,9.38-14.89c3.9-3.96,8.38-6.94,13.43-8.95
		c5.05-2.01,10.21-3.01,15.49-3.01c12.4,0,22.06,3.85,29.01,11.53c6.94,7.69,10.42,19.17,10.42,34.43c0,1.15-0.03,2.22-0.09,3.65
		c-0.06,1.44-0.14,2.65-0.26,3.65h-59.39c0.58,8,3.13,13.04,7.66,17c4.53,3.96,11.1,6.05,19.71,6.05c5.05,0,9.67-0.4,13.86-1.32
		c4.19-0.92,7.49-1.87,9.9-2.9l2.76,17.06c-1.15,0.57-2.73,1.18-4.73,1.81c-2.01,0.63-4.3,1.21-6.89,1.72
		c-2.58,0.52-5.36,0.95-8.35,1.29c-2.99,0.35-6.03,0.52-9.12,0.52c-7.92,0-14.81-1.18-20.66-3.53c-5.85-2.35-10.67-5.62-14.46-9.81
		c-3.79-4.19-6.6-9.12-8.44-14.8C560.85,171.31,559.93,165.08,559.93,158.31 M620.36,148.9c0-3-0.4-5.54-1.21-8.12
		c-0.8-2.58-1.98-4.79-3.53-6.68c-1.55-1.89-3.44-3.37-5.68-4.46c-2.24-1.09-4.91-1.63-8-1.63c-3.21,0-6.03,0.61-8.44,1.81
		c-2.41,1.21-4.45,2.79-6.11,4.74c-1.66,1.95-2.96,4.13-3.87,6.66c-0.92,2.53-1.55,4.69-1.89,7.69H620.36z"/>
	<path class="st0" d="M184.22,112.9v47.14c0,9.64-1.19,16.53-4.01,20.66c-2.8,4.12-7.59,6.18-14.56,6.19
		c-6.97-0.01-11.64-2.07-14.44-6.19c-2.81-4.13-4-11.02-4-20.66V112.9h-21v50.41c0,6.08,0.55,11.68,1.81,16.78
		c1.26,5.11,3.32,9.5,6.24,13.17c2.92,3.67,6.81,6.51,11.69,8.57c4.88,2.06,12.57,3.07,19.8,3.07h0h0c7.23,0,14.94-1,19.82-3.07
		c4.88-2.07,8.78-4.92,11.71-8.59c2.93-3.67,4.9-8.05,6.16-13.16c1.26-5.1,1.77-10.69,1.77-16.78V112.9H184.22z"/>
	<path class="st0" d="M28.22,157.97c0,7.23,1.06,13.74,3.19,19.54c2.12,5.8,5.16,10.76,9.12,14.89c3.96,4.13,8.75,7.29,14.38,9.47
		c5.62,2.18,11.99,3.27,19.11,3.27c6.89,0,13.42-0.52,19.67-1.55c6.26-1.03,11.54-2.18,15.54-3.44V70.9c0,0-0.09-0.01-0.14-0.01
		c-3.25,0-17.51,2.58-20.75,5.82c-0.01,0.01-0.11,0.03-0.11,0.04v39.21c-2-1.26-5.24-2.41-8.74-3.44c-3.5-1.03-7.31-1.55-11.56-1.55
		c-6.31,0-11.93,1.12-16.92,3.36c-4.99,2.24-9.14,5.42-12.47,9.55c-3.33,4.13-5.87,9.1-7.65,14.89
		C29.11,144.57,28.22,150.97,28.22,157.97z M49.57,157.62c0-8.84,1.75-15.84,5.25-21c3.5-5.16,9.04-7.75,16.61-7.75
		c3.44,0,6.56,0.52,9.6,1.55c3.04,1.03,5.19,2.18,7.19,3.44v51.82c-1,0.35-3.29,0.66-5.64,0.95c-2.35,0.29-5.13,0.43-8.46,0.43
		c-7.69,0-13.68-2.61-18.04-7.83C51.72,174,49.57,166.8,49.57,157.62z"/>
	<path class="st0" d="M300.64,138.77c-1.78-5.79-4.33-10.76-7.66-14.89c-3.33-4.13-7.49-7.32-12.48-9.55
		c-4.99-2.24-10.64-3.36-16.96-3.36c-4.25,0-8.05,0.52-11.55,1.55c-3.49,1.03-6.77,2.17-8.77,3.43V70.9c0,0-0.23-0.01-0.27-0.01
		c-3.25,0-17.44,2.58-20.68,5.82c-0.01,0.01-0.04,0.03-0.04,0.04v123.39c4,1.27,9.32,2.41,15.58,3.44
		c6.25,1.03,12.82,1.55,19.71,1.55c7.11,0,13.48-1.09,19.11-3.27c5.62-2.18,10.42-5.34,14.38-9.47c3.96-4.13,7-9.09,9.12-14.89
		c2.12-5.79,3.19-12.31,3.19-19.54C303.31,150.97,302.42,144.57,300.64,138.77z M275.42,179.22c-4.36,5.23-10.39,7.83-18.08,7.83
		c-3.33,0-6.09-0.14-8.44-0.43c-2.35-0.29-4.68-0.6-5.68-0.95v-51.82c2-1.26,4.19-2.41,7.23-3.44c3.04-1.03,6.24-1.55,9.68-1.55
		c7.58,0,13.09,2.58,16.59,7.75c3.5,5.17,5.24,12.17,5.24,21C281.97,166.8,279.78,174,275.42,179.22z"/>
	<g>
		<path class="st0" d="M334.41,112.9c0,0-9.7-0.07-12.48,1.73c-3.31,2.13-5.3,5.03-5.31,8.81c-0.01,3.56,1.14,31.95,1.61,34.72
			c0.46,2.77,3.34,0.94,4.57,8.01c1.23,7.07,4.18,37.26,4.92,38c1.08,1.08,5.79,1.94,6.87,1.94c1.08,0,5.79-0.86,6.87-1.94
			c0.74-0.74,3.68-30.93,4.91-38c1.23-7.07,4.1-5.24,4.56-8.01c0.46-2.77,1.59-31.16,1.58-34.72c-0.01-3.78-2.04-6.68-5.35-8.81
			c-2.59-1.67-11.24-1.73-12.43-1.73c-0.09,0-0.5,0-0.5,0"/>
	</g>
	<g>
		<g>
			<g>
				<path class="st0" d="M346.81,96.91c0,6.62-5.37,11.98-11.97,11.98c-6.62,0-11.98-5.36-11.98-11.98c0-6.6,5.36-11.97,11.98-11.97
					C341.44,84.95,346.81,90.31,346.81,96.91"/>
				<path class="st1" d="M328.12,52.54c6.29-5.23,16.01-14.92,16.01-22.31c0-11.24-6.02-16.38-6.02-16.38s2.62,8.88-17.87,27.73
					c-17.64,16.23-15.15,31.03-15.09,31.98c0.56,9.1,4.31,19.64,10.94,24.04c-2.61-3.98-4.15-8.75-4.29-13.8
					C311.82,82.31,310.48,67.27,328.12,52.54"/>
				<path class="st1" d="M361.55,85.15c-0.35-8.97-3.22-9.69-6.54-17.64c-4.7-12.79,3.33-23.72-5.59-37.3
					c-2.74,17.31-15.64,22.34-25.03,33.43c-7.34,8.67-9.32,19.84-5.77,27.68c2.32-6.72,8.72-11.56,16.22-11.56
					c9.46,0,17.15,7.69,17.15,17.15c0,3.48-1.04,6.73-2.83,9.44C357.33,103.41,361.89,93.73,361.55,85.15"/>
			</g>
		</g>
	</g>
</g>
<g>
	<path class="st2" d="M767.14,169.34c0,6.4,3.75,9.59,11.26,9.59c0.04,0,0.08,0,0.12,0c7.16,0,10.74-3.02,10.74-9.07v-7.55
		c-3.35-0.47-6.2-0.72-8.58-0.76C771.69,161.56,767.18,164.15,767.14,169.34z"/>
	<path class="st2" d="M704.48,114.69l-62.3,89.62h250.89l62.3-89.62H704.48z M747.74,145.18c-4.72-1.91-9.67-2.87-14.86-2.87
		c-5.5,0-9.58,1.26-12.25,3.79c-2.67,2.52-4.01,7.42-4.01,14.7c0,7.2,1.33,12.08,4.01,14.64c2.67,2.56,6.76,3.84,12.25,3.84
		c4.95,0,9.91-0.99,14.86-2.98v11.82c-5.65,2.34-11.41,3.51-17.26,3.51c-9.09,0-16.07-2.66-20.94-7.97
		c-4.88-5.31-7.31-12.93-7.31-22.86c0-9.96,2.44-17.59,7.31-22.89c4.87-5.29,11.85-7.94,20.94-7.94c5.85,0,11.6,1.13,17.26,3.39
		V145.18z M803.65,171.5c0,5.5-2.06,10.23-6.17,14.19c-4.11,3.96-10.43,5.94-18.96,5.94c-8.82,0-15.33-1.99-19.5-5.97
		c-4.18-3.98-6.26-8.81-6.26-14.51c0-1.21,0.12-2.45,0.35-3.71c0.23-1.27,0.85-2.86,1.85-4.77c1-1.91,2.36-3.59,4.09-5.03
		c1.73-1.44,4.27-2.68,7.65-3.71c3.37-1.03,7.35-1.55,11.94-1.55c3.27,0,6.77,0.27,10.5,0.82c0-7.6-4.22-11.41-12.66-11.41
		c-6.74,0-12.59,1.01-17.57,3.04v-11.82c5.52-2.03,11.65-3.04,18.38-3.04c8.53,0,15.05,2.17,19.57,6.52
		c4.52,4.35,6.78,10.64,6.78,18.87V171.5z M820.6,132.98L820.6,132.98c4.53-1.9,10.56-3,15.78-3.01c2.63,0,5.66,0.29,8.21,0.89
		l1.25,0.3v1.29c0,3.13-0.51,6.03-1.62,8.54l-0.48,1.08l-1.17-0.12c-2.06-0.21-4.44-0.38-6.05-0.38c-1.64,0-3.4,0.17-5.01,0.48
		c-1.61,0.3-3.1,0.74-4.15,1.21l0,0c-1.45,0.65-2.28,1.38-2.88,2.42c-0.59,1.04-0.93,2.55-0.93,4.75v38.75l-0.9,0.45
		c-2.78,1.38-5.93,1.89-9.38,1.89h-1.63v-45.18c0-2.52,0.38-4.7,1.24-6.59c0.85-1.89,2.18-3.43,3.87-4.65
		C817.87,134.28,819.16,133.59,820.6,132.98 M884.35,186.68c-4.08,3.3-9.47,4.94-16.17,4.94c-6.86,0-13.18-1.62-18.95-4.87V174
		c5.26,3.52,10.9,5.28,16.91,5.28c4.13,0,6.82-0.48,8.07-1.44c1.25-0.96,1.87-2.4,1.87-4.31c0-1.76-0.99-3.18-2.95-4.25
		c-1.97-1.08-4.35-2.01-7.14-2.82c-2.79-0.8-5.58-1.75-8.37-2.85c-2.79-1.09-5.17-2.9-7.14-5.43c-1.97-2.52-2.95-5.7-2.95-9.54
		c0-6.01,2.12-10.63,6.35-13.85s9.51-4.83,15.82-4.83c5.93,0,11.37,1.42,16.32,4.27v10.95c-4.06-1.92-8.66-2.88-13.81-2.88
		c-6.86,0-10.29,1.68-10.29,5.05c0,1.68,0.97,3,2.92,3.96c1.95,0.96,4.33,1.8,7.14,2.52c2.81,0.72,5.61,1.7,8.39,2.93
		c2.79,1.23,5.17,3.32,7.14,6.25c1.97,2.93,2.95,6.67,2.95,11.21C890.47,179.24,888.43,183.39,884.35,186.68z"/>
</g>
</svg>
