<svg width="49" height="48" viewBox="0 0 49 48" fill="none" xmlns="http://www.w3.org/2000/svg">
<ellipse cx="24.0674" cy="24" rx="24" ry="24" fill="#B39DDB"/>
<path d="M32.5538 16.0014H15.6134C14.8649 16.0022 14.1472 16.2999 13.6179 16.8292C13.0886 17.3586 12.7908 18.0762 12.79 18.8248V30.9251C12.7908 31.6737 13.0886 32.3913 13.6179 32.9207C14.1472 33.45 14.8649 33.7477 15.6134 33.7485H32.5538C33.3024 33.7477 34.0201 33.45 34.5494 32.9207C35.0787 32.3913 35.3764 31.6737 35.3772 30.9251V18.8248C35.3764 18.0762 35.0787 17.3586 34.5494 16.8292C34.0201 16.2999 33.3024 16.0022 32.5538 16.0014ZM31.8389 20.6716L24.5787 26.3184C24.4372 26.4285 24.263 26.4882 24.0836 26.4882C23.9043 26.4882 23.7301 26.4285 23.5885 26.3184L16.3284 20.6716C16.2431 20.6072 16.1714 20.5265 16.1176 20.4341C16.0638 20.3418 16.0288 20.2397 16.0148 20.1337C16.0008 20.0277 16.0079 19.92 16.0359 19.8169C16.0639 19.7137 16.1121 19.6171 16.1777 19.5327C16.2433 19.4483 16.325 19.3778 16.4181 19.3253C16.5112 19.2728 16.6138 19.2393 16.72 19.2267C16.8261 19.2142 16.9337 19.2229 17.0365 19.2523C17.1392 19.2817 17.2351 19.3313 17.3186 19.3981L24.0836 24.6597L30.8487 19.3981C31.0179 19.2703 31.2305 19.2143 31.4407 19.2421C31.6508 19.2699 31.8416 19.3793 31.9717 19.5466C32.1018 19.714 32.1608 19.9258 32.136 20.1364C32.1111 20.3469 32.0044 20.5392 31.8389 20.6716Z" fill="white"/>
</svg>
