<svg width="270" height="180" viewBox="0 0 270 180" fill="none" xmlns="http://www.w3.org/2000/svg">
<rect width="270" height="180" fill="#C2C4C7"/>
<path d="M151.333 71.3333H118.667C116.81 71.3333 115.03 72.0707 113.717 73.3835C112.404 74.6963 111.667 76.4767 111.667 78.3333V101.667C111.667 103.523 112.404 105.304 113.717 106.616C115.03 107.929 116.81 108.667 118.667 108.667H151.333C153.19 108.667 154.97 107.929 156.283 106.616C157.596 105.304 158.333 103.523 158.333 101.667V78.3333C158.333 76.4767 157.596 74.6963 156.283 73.3835C154.97 72.0707 153.19 71.3333 151.333 71.3333ZM118.667 104C118.048 104 117.454 103.754 117.017 103.316C116.579 102.879 116.333 102.285 116.333 101.667V96.0199L124.033 88.3433C124.469 87.9157 125.056 87.6762 125.667 87.6762C126.277 87.6762 126.864 87.9157 127.3 88.3433L142.957 104H118.667ZM153.667 101.667C153.667 102.285 153.421 102.879 152.983 103.316C152.546 103.754 151.952 104 151.333 104H149.537L140.647 95.0632L142.7 93.0099C143.136 92.5824 143.723 92.3429 144.333 92.3429C144.944 92.3429 145.53 92.5824 145.967 93.0099L153.667 100.687V101.667ZM153.667 94.1066L149.28 89.7432C147.95 88.4656 146.177 87.752 144.333 87.752C142.489 87.752 140.716 88.4656 139.387 89.7432L137.333 91.7966L130.613 85.0766C129.283 83.7989 127.511 83.0854 125.667 83.0854C123.822 83.0854 122.05 83.7989 120.72 85.0766L116.333 89.4399V78.3333C116.333 77.7144 116.579 77.1209 117.017 76.6833C117.454 76.2458 118.048 75.9999 118.667 75.9999H151.333C151.952 75.9999 152.546 76.2458 152.983 76.6833C153.421 77.1209 153.667 77.7144 153.667 78.3333V94.1066Z" fill="#84888E"/>
</svg>
