<svg xmlns="http://www.w3.org/2000/svg" xmlns:xlink="http://www.w3.org/1999/xlink" width="124" height="139"><defs><linearGradient id="A" x1="50%" x2="50%" y1="0%" y2="100%"><stop offset="0%" stop-color="#e7f7ff"/><stop offset="100%" stop-color="#edf5ff"/></linearGradient><path id="B" d="M7 114c-4 0-7-2.6-7-5.8V17.8C0 14.6 3.2 12 7 12H57c4 0 7 2.6 7 5.8v90.4c0 3.2-3.2 5.8-7 5.8H7z"/><filter id="C" width="198.4%" height="161.8%" x="-49.2%" y="-25%"><feOffset dy="6" in="SourceAlpha"/><feGaussianBlur stdDeviation="9.5"/><feColorMatrix values="0 0 0 0 0 0 0 0 0 0 0 0 0 0 0 0 0 0 0.12 0"/></filter><path id="D" d="M22.5 2.5a6.9 6.9 0 0 0-4.9-2 6.7 6.7 0 0 0-5.4 2.6A6.7 6.7 0 0 0 6.9.5 6.9 6.9 0 0 0 2 12.3L12.2 22l10.2-9.7a6.9 6.9 0 0 0 0-9.7z"/></defs><g fill="none" fill-rule="evenodd"><g fill="#c7f2c6"><path d="M29.8 110C26.6 97 19.4 85 9.4 76l.4-.5c10 9 17.4 21 20.7 34l-.7.2z"/><path d="M29 91.5c1.4-2.4.2-5.7.2-5.7s-3.5.5-5 3-.2 5.7-.2 5.7 3.5-.5 5-3m-10.7-2c-2.8-.2-5.2 2.3-5.2 2.3s2 3 4.8 3.2 5.2-2.3 5.2-2.3-2-3-4.8-3.2M14.7 83c-2.4-.2-4.5 2-4.5 2s1.7 2.5 4 2.7 4.5-2 4.5-2-1.7-2.5-4-2.7m8 .1c.8-2-.6-4.6-.6-4.6s-2.8 1-3.6 3S19 86 19 86s2.8-1 3.6-3m-6.2-6c.7-1.8-.5-4-.5-4s-2.3.7-3 2.5.5 4 .5 4 2.3-.7 3-2.5m-7 .6c-2 .3-3 2.5-3 2.5S8 82 10 81.5s3-2.5 3-2.5-1.8-1.6-3.7-1.3m-.1-5c-1.4-1.3-3.8-1-3.8-1s-.2 2.4 1.2 3.7 3.8 1 3.8 1 .2-2.4-1.2-3.7m14 25.5c-2.8-.7-6 1.5-6 1.5s1.6 3.5 4.4 4.2 6-1.5 6-1.5-1.6-3.5-4.4-4.2m10.3 1.6c1.5-2.5.2-6 .2-6s-3.8.5-5.3 3-.2 6-.2 6 3.8-.5 5.3-3"/></g><path fill="url(#A)" d="M115.2 72c4.4 0 8-3.6 8-8s-3.6-8-8-8c-1 0-2 .2-2.8.5-.2-4.2-3.7-7.6-8-7.6-4 0-7.5 3-8 7a7.9 7.9 0 0 0-2.3-.3c-4.4 0-8 3.6-8 8s3.5 8 8 8l21 .2z"/><path fill="url(#A)" d="M22.7 39.8c3 0 5.6-2.5 5.6-5.6s-2.5-5.6-5.6-5.6c-.7 0-1.4.1-2 .4-.1-3-2.6-5.3-5.6-5.3-3 0-5.3 2.2-5.6 5a5.7 5.7 0 0 0-1.6-.2c-3 0-5.6 2.5-5.6 5.6s2.5 5.6 5.6 5.6l14.8.2z"/><g fill="#c7f2c6"><path d="M82.6 105.3c8.5-8.3 19.6-14 31.3-15.8v.6c-11.6 2-22.5 7.6-31 15.8l-.5-.5z"/><path d="M92.2 92.4c.1-2.4 2.5-4.4 2.5-4.4s2.4 2 2.4 4.5-2.5 4.4-2.5 4.4-2.4-2-2.3-4.5m9 3.4c2.2 1 2.8 4.2 2.8 4.2s-3 1.3-5 .2S96 96 96 96s3-1.3 5-.2m5.7-3c2 1 2.4 3.6 2.4 3.6s-2.5 1-4.3.1-2.4-3.6-2.4-3.6 2.5-1 4.3-.1m-6-3.6c.3-2 2.6-3.2 2.6-3.2s1.7 2 1.3 4-2.6 3.2-2.6 3.2-1.7-2-1.3-4m7.4-1.5c.3-1.6 2.2-2.7 2.2-2.7s1.4 1.6 1 3.3-2.2 2.7-2.2 2.7-1.4-1.6-1-3.3m5 3.8c1.2 1 1 3.3 1 3.3s-2 .3-3.4-.8-1-3.3-1-3.3 2-.3 3.4.8m2.4-3.6c1.6-.3 3.3 1 3.3 1s-1 2-2.7 2.2-3.3-1-3.3-1 1-2 2.7-2.2"/></g><path d="M9.8 53l.7 1.5a.2.2 0 0 0 .1.1l1.5.7a.2.2 0 0 1 0 .4l-1.5.7a.2.2 0 0 0-.1.1L9.8 58a.2.2 0 0 1-.4 0l-.7-1.5a.2.2 0 0 0-.1-.1L7 55.7a.2.2 0 0 1 0-.4l1.5-.7a.2.2 0 0 0 .1-.1l.7-1.5a.2.2 0 0 1 .4 0m-8-2.4l.4 1s0 .1.1.1l1 .4a.1.1 0 0 1 0 .2l-1 .4a.1.1 0 0 0-.1.1l-.4 1a.1.1 0 0 1-.2 0l-.4-1a.1.1 0 0 0-.1-.1l-1-.4a.1.1 0 0 1 0-.2l1-.4a.1.1 0 0 0 .1-.1l.4-1a.1.1 0 0 1 .2 0m108-38.2l.8 1.8a.3.3 0 0 0 .1.1l1.8.8a.3.3 0 0 1 0 .5l-1.8.8a.3.3 0 0 0-.1.1l-.8 1.8a.3.3 0 0 1-.5 0l-.8-1.8a.3.3 0 0 0-.1-.1l-1.8-.8a.3.3 0 0 1 0-.5l1.8-.8a.3.3 0 0 0 .1-.1l.8-1.8a.3.3 0 0 1 .5 0m3-10l.4 1a.1.1 0 0 0 .1.1l1 .4a.1.1 0 0 1 0 .2l-1 .4a.1.1 0 0 0-.1.1l-.4 1a.1.1 0 0 1-.2 0l-.4-1a.1.1 0 0 0-.1-.1l-1-.4a.1.1 0 0 1 0-.2l1-.4a.1.1 0 0 0 .1-.1l.4-1a.1.1 0 0 1 .2 0m-10-2.3l.7 1.4 1.3.6a.2.2 0 0 1 0 .4l-1.3.6a.2.2 0 0 0-.1.1l-.6 1.3a.2.2 0 0 1-.4 0l-.6-1.3a.2.2 0 0 0-.1-.1l-1.3-.6a.2.2 0 0 1 0-.4l1.3-.6a.2.2 0 0 0 .1-.1l.6-1.3a.2.2 0 0 1 .4 0" fill="#eef0f1"/><g transform="translate(27 .5)"><use fill="#000" filter="url(#C)" xlink:href="#B"/><use fill="#fff" xlink:href="#B"/><g fill="#eef0f1"><rect width="23" height="9" y="95.6" rx="4.5" x="8"/><rect width="23" height="9" x="32.3" y="95.6" rx="4.5"/></g><path fill="#b6b8b9" d="M10.5 63h21a2.5 2.5 0 1 1 0 5h-21a2.5 2.5 0 1 1 0-5z"/><g fill="#eef0f1"><path d="M10.5 72.5h43a2.5 2.5 0 1 1 0 5h-43a2.5 2.5 0 1 1 0-5zm0 9h43a2.5 2.5 0 1 1 0 5h-43a2.5 2.5 0 1 1 0-5z"/><rect width="48" height="35" x="8.5" y="20.5" rx="1.5"/></g><path d="M28.5 29.5c1.5 0 2.6 1.2 2.6 2.7s-1.2 2.7-2.6 2.7S26 33.6 26 32s1.2-2.7 2.6-2.7zm16.6 15.8a.5.5 0 0 1-.5.3H22a.5.5 0 0 1-.5-.3.6.6 0 0 1 0-.6l4.3-7.3a.5.5 0 0 1 .9-.1l3.8 4.5 6-9.4a.5.5 0 0 1 .5-.2c.2 0 .4.1.5.3l7.5 12.3c.1.2.1.4 0 .6z" fill="#b6b8b9" opacity=".7"/><g transform="translate(52 .5)"><mask id="E" fill="#fff"><use xlink:href="#D"/></mask><use fill="#000" fill-rule="nonzero" xlink:href="#D"/><g fill="#e00000" mask="url(#E)"><path d="M0-1h24.5v24.5H0z"/></g></g></g></g></svg>