<svg xmlns="http://www.w3.org/2000/svg" width="17.415" height="17.415" viewBox="0 0 17.415 17.415">
  <path id="Path_2166" data-name="Path 2166" d="M1136.915,867.2h-12.721a2.347,2.347,0,0,0-2.347,2.347v12.721a2.347,2.347,0,0,0,2.347,2.347h6.274l.01-6.223h-1.617a.381.381,0,0,1-.381-.38l-.008-2.006a.381.381,0,0,1,.381-.383h1.614v-1.938a3.167,3.167,0,0,1,3.38-3.474h1.647a.382.382,0,0,1,.381.381v1.691a.381.381,0,0,1-.381.381h-1.01c-1.091,0-1.3.519-1.3,1.279v1.678h2.4a.381.381,0,0,1,.379.426l-.238,2.006a.381.381,0,0,1-.379.337h-2.149l-.011,6.223h3.733a2.347,2.347,0,0,0,2.346-2.347V869.552A2.347,2.347,0,0,0,1136.915,867.2Z" transform="translate(-1121.847 -867.205)" fill="#fff"/>
</svg>
