<?xml version="1.0" encoding="UTF-8"?>
<svg width="29px" height="29px" viewBox="0 0 29 29" version="1.1" xmlns="http://www.w3.org/2000/svg" xmlns:xlink="http://www.w3.org/1999/xlink">
    <!-- Generator: Sketch 58 (84663) - https://sketch.com -->
    <title>2. Global/Icon/Colored/32px/Community</title>
    <desc>Created with Sketch.</desc>
    <g id="Mobile-Web" stroke="none" stroke-width="1" fill="none" fill-rule="evenodd">
        <g id="Artboard" transform="translate(-81.000000, -25.000000)">
            <g id="2.-Global/Icon/Colored/32px/Community" transform="translate(79.000000, 23.000000)">
                <g id="Shape" transform="translate(3.000000, 3.000000)">
                    <path d="M6.51724138,7.44827586 L6.51724138,7.44827586 C4.46027586,7.44827586 2.79310345,5.78110345 2.79310345,3.72413793 C2.79310345,1.66717241 4.46027586,0 6.51724138,0 C8.5742069,0 10.2413793,1.66717241 10.2413793,3.72413793 C10.2413793,5.78110345 8.5742069,7.44827586 6.51724138,7.44827586 Z" id="Stroke-1" stroke="#E00000" stroke-width="2" fill="#F7BABA" stroke-linecap="square"></path>
                    <path d="M8.68275862,26.0689655 L3.42068966,26.0689655 C2.86840491,26.0689655 2.42068966,25.6212503 2.42068966,25.0689655 L2.42068966,19.862069 L2.42068966,19.862069 L1,19.862069 C0.44771525,19.862069 5.58162771e-16,19.4143537 0,18.862069 L0,13.6551724 L0,13.6551724 C0,12.2834483 1.08325862,11.1724138 2.42068966,11.1724138 L9.68275862,11.1724138 C11.0201897,11.1724138 12.1034483,12.2834483 12.1034483,13.6551724 L12.1034483,18.862069 C12.1034483,19.4143537 11.655733,19.862069 11.1034483,19.862069 L9.68275862,19.862069 L9.68275862,19.862069 L9.68275862,25.0689655 C9.68275862,25.6212503 9.23504337,26.0689655 8.68275862,26.0689655 Z" id="Stroke-3" stroke="#E00000" stroke-width="2" fill="#FFFFFF" stroke-linecap="square"></path>
                    <path d="M6.51724138,11.1724138 L6.51724138,15.8275862" id="Stroke-5" stroke="#E00000" stroke-width="2" stroke-linecap="round"></path>
                    <path d="M20.4827586,7.44827586 L20.4827586,7.44827586 C18.4257931,7.44827586 16.7586207,5.78110345 16.7586207,3.72413793 C16.7586207,1.66717241 18.4257931,0 20.4827586,0 C22.5397241,0 24.2068966,1.66717241 24.2068966,3.72413793 C24.2068966,5.78110345 22.5397241,7.44827586 20.4827586,7.44827586 Z" id="Stroke-7" stroke="#E00000" stroke-width="2" fill="#F7BABA" stroke-linecap="square"></path>
                    <path d="M16.7586207,11.1724138 L24.4396552,11.1724138 C25.8542457,11.1724138 27,12.2834483 27,13.6551724 L27,18.862069 C27,19.4143537 26.5522847,19.862069 26,19.862069 L24.4396552,19.862069 L24.4396552,19.862069 L24.4396552,25.0689655 C24.4396552,25.6212503 23.9919399,26.0689655 23.4396552,26.0689655 L17.7586207,26.0689655 C17.2063359,26.0689655 16.7586207,25.6212503 16.7586207,25.0689655 L16.7586207,19.862069 L16.7586207,19.862069" id="Stroke-9" stroke="#E00000" stroke-width="2" stroke-linecap="round"></path>
                    <path d="M21.4137931,16.2931034 C21.4137931,17.064 20.7881379,17.6896552 20.0172414,17.6896552 C19.2463448,17.6896552 18.6206897,17.064 18.6206897,16.2931034 C18.6206897,15.5222069 19.2463448,14.8965517 20.0172414,14.8965517 C20.7881379,14.8965517 21.4137931,15.5222069 21.4137931,16.2931034" id="Fill-11" fill="#E00000"></path>
                </g>
            </g>
        </g>
    </g>
</svg>