<svg width="14" height="12" viewBox="0 0 14 12" fill="none" xmlns="http://www.w3.org/2000/svg">
<path d="M11.6667 0.666748H2.33337C1.80294 0.666748 1.29423 0.877462 0.919161 1.25253C0.544088 1.62761 0.333374 2.13631 0.333374 2.66675V9.33341C0.333374 9.86385 0.544088 10.3726 0.919161 10.7476C1.29423 11.1227 1.80294 11.3334 2.33337 11.3334H11.6667C12.1971 11.3334 12.7058 11.1227 13.0809 10.7476C13.456 10.3726 13.6667 9.86385 13.6667 9.33341V2.66675C13.6667 2.13631 13.456 1.62761 13.0809 1.25253C12.7058 0.877462 12.1971 0.666748 11.6667 0.666748ZM2.33337 10.0001C2.15656 10.0001 1.98699 9.92984 1.86197 9.80482C1.73695 9.6798 1.66671 9.51023 1.66671 9.33341V7.72008L3.86671 5.52675C3.99133 5.4046 4.15887 5.33618 4.33337 5.33618C4.50788 5.33618 4.67542 5.4046 4.80004 5.52675L9.27337 10.0001H2.33337ZM12.3334 9.33341C12.3334 9.51023 12.2631 9.6798 12.1381 9.80482C12.0131 9.92984 11.8435 10.0001 11.6667 10.0001H11.1534L8.61337 7.44675L9.20004 6.86008C9.32466 6.73793 9.49221 6.66951 9.66671 6.66951C9.84121 6.66951 10.0088 6.73793 10.1334 6.86008L12.3334 9.05341V9.33341ZM12.3334 7.17341L11.08 5.92675C10.7001 5.5617 10.1936 5.35783 9.66671 5.35783C9.1398 5.35783 8.63334 5.5617 8.25337 5.92675L7.66671 6.51341L5.74671 4.59341C5.36675 4.22837 4.86028 4.0245 4.33337 4.0245C3.80647 4.0245 3.3 4.22837 2.92004 4.59341L1.66671 5.84008V2.66675C1.66671 2.48994 1.73695 2.32037 1.86197 2.19534C1.98699 2.07032 2.15656 2.00008 2.33337 2.00008H11.6667C11.8435 2.00008 12.0131 2.07032 12.1381 2.19534C12.2631 2.32037 12.3334 2.48994 12.3334 2.66675V7.17341Z" fill="white"/>
</svg>
