  <svg
    width="14"
    height="14"
    viewBox="0 0 14 14"
    fill="none"
    xmlns="http://www.w3.org/2000/svg"
  >
    <path
      d="M6.41797 4.08317H7.58464V5.24984H6.41797V4.08317ZM6.41797 6.4165H7.58464V9.9165H6.41797V6.4165ZM7.0013 1.1665C3.7813 1.1665 1.16797 3.77984 1.16797 6.99984C1.16797 10.2198 3.7813 12.8332 7.0013 12.8332C10.2213 12.8332 12.8346 10.2198 12.8346 6.99984C12.8346 3.77984 10.2213 1.1665 7.0013 1.1665ZM7.0013 11.6665C4.4288 11.6665 2.33464 9.57234 2.33464 6.99984C2.33464 4.42734 4.4288 2.33317 7.0013 2.33317C9.5738 2.33317 11.668 4.42734 11.668 6.99984C11.668 9.57234 9.5738 11.6665 7.0013 11.6665Z"
      fill="#3A3F47"
    />
  </svg>