<svg xmlns="http://www.w3.org/2000/svg" width="16.482" height="16.482" viewBox="0 0 16.482 16.482">
  <g id="Group_3442" data-name="Group 3442" transform="translate(0)">
    <path id="Path_2164" data-name="Path 2164" d="M1251.922,868.822h-6.662a4.915,4.915,0,0,0-4.91,4.91v6.662a4.915,4.915,0,0,0,4.91,4.91h6.662a4.916,4.916,0,0,0,4.91-4.91v-6.662A4.916,4.916,0,0,0,1251.922,868.822Zm3.252,11.572a3.252,3.252,0,0,1-3.252,3.252h-6.662a3.252,3.252,0,0,1-3.252-3.252v-6.662a3.252,3.252,0,0,1,3.252-3.252h6.662a3.252,3.252,0,0,1,3.252,3.252v6.662Z" transform="translate(-1240.351 -868.822)" fill="#fff"/>
    <path id="Path_2165" data-name="Path 2165" d="M1258.4,882.609a4.263,4.263,0,1,0,4.263,4.263A4.268,4.268,0,0,0,1258.4,882.609Zm0,6.867a2.6,2.6,0,1,1,2.6-2.6A2.6,2.6,0,0,1,1258.4,889.476Z" transform="translate(-1250.159 -878.631)" fill="#fff"/>
    <circle id="Ellipse_107" data-name="Ellipse 107" cx="1.021" cy="1.021" r="1.021" transform="translate(11.49 2.989)" fill="#fff"/>
  </g>
</svg>
