<svg width="32" height="32" fill="none" xmlns="http://www.w3.org/2000/svg"><path d="M28.653 13.587l-1.333-.733-12-6.667h-.147a1.412 1.412 0 00-.254-.08h-.493a1.56 1.56 0 00-.267.08h-.146l-12 6.667a1.333 1.333 0 000 2.32l3.32 1.84v6.32a4 4 0 004 4H20a4 4 0 004-4v-6.32l2.666-1.493v3.813a1.334 1.334 0 002.667 0v-4.587a1.333 1.333 0 00-.68-1.16zm-7.32 9.747A1.333 1.333 0 0120 24.667H9.333A1.333 1.333 0 018 23.334v-4.84l6.013 3.333.2.08h.12c.11.014.223.014.333 0 .11.014.223.014.333 0h.12a.626.626 0 00.2-.08l6.014-3.333v4.84zm-6.667-4.187l-9.253-5.146 9.253-5.147 9.253 5.147-9.253 5.146z" fill="#1270EC"/></svg>