<svg width="32" height="32" fill="none" xmlns="http://www.w3.org/2000/svg"><path d="M28 13.332a1.331 1.331 0 001.333-1.333v-4a1.332 1.332 0 00-.911-1.265l-12-4a1.336 1.336 0 00-.844 0l-12 4A1.332 1.332 0 002.667 8v4A1.333 1.333 0 004 13.332h1.333v9.58a3.993 3.993 0 00-2.667 3.753v2.667A1.333 1.333 0 004 30.665h24a1.333 1.333 0 001.333-1.333v-2.667a3.995 3.995 0 00-2.666-3.754v-9.579H28zm-1.334 14.667H5.334v-1.334a1.335 1.335 0 011.333-1.333h18.667a1.335 1.335 0 011.334 1.333V28zM8 22.665v-9.333h2.666v9.333H8zm5.333 0v-9.333h5.333v9.333h-5.333zm8 0v-9.333H24v9.333h-2.667zm-16-12V8.96L16 5.404 26.666 8.96v1.705H5.334z" fill="#1270EC"/></svg>