<svg width="32" height="32" fill="none" xmlns="http://www.w3.org/2000/svg"><path d="M28.886 13.67l-12-10.667a1.332 1.332 0 00-1.771 0l-12 10.667a1.333 1.333 0 101.77 1.993l.449-.398V28a1.333 1.333 0 001.333 1.333h18.667A1.331 1.331 0 0026.666 28V15.265l.448.398a1.333 1.333 0 101.77-1.993zm-16.64 12.996a3.976 3.976 0 017.508 0h-7.508zM14 19.333a2 2 0 114 0 2 2 0 01-4 0zm10 7.333h-1.468a6.667 6.667 0 00-3.011-4.304 4.625 4.625 0 001.146-3.029 4.666 4.666 0 10-9.334 0 4.625 4.625 0 001.147 3.03 6.667 6.667 0 00-3.012 4.303H8V12.895l8-7.111 8 7.11v13.772z" fill="#1270EC"/></svg>