<svg xmlns="http://www.w3.org/2000/svg" width="16" height="16" viewBox="0 0 16 16">
    <g fill="none" fill-rule="evenodd">
        <path fill="#FFF" d="M11.244 1.645h1.6c1.007 0 1.823.815 1.823 1.821v8.046c0 1.006-.816 1.821-1.822 1.821H1.822C.816 13.333 0 12.518 0 11.512V3.466C0 2.46.816 1.645 1.822 1.645h1.6V.68L4.607 0h6.12l.517.424v1.22z" transform="translate(.667 .667)"/>
        <path fill="#F7BABA" d="M4.667 5L6.667 6.667 8.667 6.667 10.667 5 7.667 3.333z" transform="translate(.667 .667)"/>
        <path stroke="#E00000" stroke-linecap="round" stroke-linejoin="round" stroke-width="1.278" d="M5.333 5.333L6.714 6.667 8.667 6.667 10 5.333" transform="translate(.667 .667)"/>
        <path stroke="#E00000" stroke-linecap="round" stroke-linejoin="round" stroke-width="1.278" d="M11.911 1.467h.934c1.006 0 1.822.815 1.822 1.821v8.357c0 1.006-.816 1.822-1.822 1.822H1.822C.816 13.467 0 12.65 0 11.645V3.288c0-1.006.816-1.821 1.822-1.821h.934" transform="translate(.667 .667)"/>
        <path stroke="#E00000" stroke-linecap="round" stroke-linejoin="round" stroke-width="1.36" d="M11.533 8L12.413 8" transform="translate(.667 .667)"/>
        <path fill="#F7BABA" stroke="#E00000" stroke-linecap="round" stroke-linejoin="round" stroke-width="1.278" d="M6.538 6.6l-.662 6.154c-.06.555.227 1.09.721 1.35l.948.496h0l.954-.496c.499-.259.787-.798.724-1.357L8.538 6.6h0-2z" transform="translate(.667 .667)"/>
        <path fill="#F7BABA" stroke="#979797" stroke-width=".68" d="M10.607.34L7.841 3.66 4.154.34h6.453z" transform="translate(.667 .667)"/>
        <path stroke="#E00000" stroke-linecap="round" stroke-linejoin="round" stroke-width="1.278" d="M10.667.221L8 3.456l2.358 1.8c.266.203.647.152.85-.115.082-.106.125-.235.125-.368V1.214C11.333.544 10.79 0 10.12 0H4.548c-.67 0-1.215.544-1.215 1.214v3.623c0 .335.272.607.608.607.112 0 .223-.031.319-.09l3.073-1.898h0L4 .221h6.667z" transform="translate(.667 .667)"/>
    </g>
</svg>
