<svg xmlns="http://www.w3.org/2000/svg" width="16.274" height="16.274" viewBox="0 0 16.274 16.274">
  <path id="Path_2167" data-name="Path 2167" d="M1372.4,869.182h-13.329a1.472,1.472,0,0,0-1.472,1.472v13.329a1.472,1.472,0,0,0,1.472,1.472H1372.4a1.472,1.472,0,0,0,1.472-1.472V870.654A1.472,1.472,0,0,0,1372.4,869.182Zm-9.766,14.052a.428.428,0,0,1-.429.428h-1.824a.428.428,0,0,1-.428-.428v-7.645a.428.428,0,0,1,.428-.428h1.824a.428.428,0,0,1,.429.428Zm-1.34-8.794a1.732,1.732,0,1,1,1.733-1.732A1.732,1.732,0,0,1,1361.293,874.44Zm10.87,8.828a.394.394,0,0,1-.394.394h-1.957a.394.394,0,0,1-.394-.394v-3.586c0-.535.157-2.344-1.4-2.344-1.206,0-1.45,1.238-1.5,1.794v4.136a.394.394,0,0,1-.394.394h-1.893a.394.394,0,0,1-.394-.394v-7.713a.394.394,0,0,1,.394-.394h1.893a.394.394,0,0,1,.394.394v.667a2.686,2.686,0,0,1,2.527-1.189c3.133,0,3.115,2.927,3.115,4.536v3.7Z" transform="translate(-1357.597 -869.182)" fill="#fff"/>
</svg>
