<svg width="20" height="20" viewBox="0 0 20 20" fill="none" xmlns="http://www.w3.org/2000/svg">
<path d="M9.99984 1.66602C6.77484 1.66602 4.1665 4.27435 4.1665 7.49935C4.1665 11.8743 9.99984 18.3327 9.99984 18.3327C9.99984 18.3327 15.8332 11.8743 15.8332 7.49935C15.8332 4.27435 13.2248 1.66602 9.99984 1.66602ZM5.83317 7.49935C5.83317 5.19935 7.69984 3.33268 9.99984 3.33268C12.2998 3.33268 14.1665 5.19935 14.1665 7.49935C14.1665 9.89935 11.7665 13.491 9.99984 15.7327C8.2665 13.5077 5.83317 9.87435 5.83317 7.49935Z" fill="#8A8F9C"/>
<path d="M9.99984 9.58268C11.1504 9.58268 12.0832 8.64994 12.0832 7.49935C12.0832 6.34876 11.1504 5.41602 9.99984 5.41602C8.84924 5.41602 7.9165 6.34876 7.9165 7.49935C7.9165 8.64994 8.84924 9.58268 9.99984 9.58268Z" fill="#8A8F9C"/>
</svg>
