<svg xmlns="http://www.w3.org/2000/svg" xmlns:xlink="http://www.w3.org/1999/xlink" width="124" height="143"><defs><linearGradient id="A" x1="50%" x2="50%" y1="0%" y2="100%"><stop offset="0%" stop-color="#e7f7ff"/><stop offset="100%" stop-color="#edf5ff"/></linearGradient><path id="B" d="M7.6 114.2c-4 0-7-2.6-7-5.8V18c0-3.2 3.2-5.8 7-5.8h49.8c4 0 7 2.6 7 5.8v90.4c0 3.2-3.2 5.8-7 5.8H7.6z"/><filter id="C" width="198.4%" height="161.8%" x="-49.2%" y="-25%"><feOffset dy="6" in="SourceAlpha"/><feGaussianBlur stdDeviation="9.5"/><feColorMatrix values="0 0 0 0 0 0 0 0 0 0 0 0 0 0 0 0 0 0 0.12 0"/></filter></defs><g fill="none" fill-rule="evenodd"><g fill="#c7f2c6"><path d="M29.8 113C26.6 100 19.4 88 9.4 79l.4-.5c10 9 17.4 21 20.7 34l-.7.2z"/><path d="M29 94.5c1.4-2.4.2-5.7.2-5.7s-3.5.5-5 3-.2 5.7-.2 5.7 3.5-.5 5-3m-10.7-2c-2.8-.2-5.2 2.3-5.2 2.3s2 3 4.8 3.2 5.2-2.3 5.2-2.3-2-3-4.8-3.2M14.7 86c-2.4-.2-4.5 2-4.5 2s1.7 2.5 4 2.7 4.5-2 4.5-2-1.7-2.5-4-2.7m8 .1c.8-2-.6-4.6-.6-4.6s-2.8 1-3.6 3S19 89 19 89s2.8-1 3.6-3m-6.2-6c.7-1.8-.5-4-.5-4s-2.3.7-3 2.5.5 4 .5 4 2.3-.7 3-2.5m-7 .6c-2 .3-3 2.5-3 2.5S8 85 10 84.5s3-2.5 3-2.5-1.8-1.6-3.7-1.3m-.1-5c-1.4-1.3-3.8-1-3.8-1s-.2 2.4 1.2 3.7 3.8 1 3.8 1 .2-2.4-1.2-3.7m14 25.5c-2.8-.7-6 1.5-6 1.5s1.6 3.5 4.4 4.2 6-1.5 6-1.5-1.6-3.5-4.4-4.2m10.3 1.6c1.5-2.5.2-6 .2-6s-3.8.5-5.3 3-.2 6-.2 6 3.8-.5 5.3-3"/></g><path fill="url(#A)" d="M115.2 75c4.4 0 8-3.6 8-8s-3.6-8-8-8c-1 0-2 .2-2.8.5-.2-4.2-3.7-7.6-8-7.6-4 0-7.5 3-8 7a7.9 7.9 0 0 0-2.3-.3c-4.4 0-8 3.6-8 8s3.5 8 8 8l21 .2z"/><path fill="url(#A)" d="M22.7 42.8c3 0 5.6-2.5 5.6-5.6s-2.5-5.6-5.6-5.6c-.7 0-1.4.1-2 .4-.1-3-2.6-5.3-5.6-5.3-3 0-5.3 2.2-5.6 5a5.7 5.7 0 0 0-1.6-.2c-3 0-5.6 2.5-5.6 5.6s2.5 5.6 5.6 5.6l14.8.2z"/><g fill="#c7f2c6"><path d="M82.6 108.3c8.5-8.3 19.6-14 31.3-15.8v.6c-11.6 2-22.5 7.6-31 15.8l-.5-.5z"/><path d="M92.2 95.4c.1-2.4 2.5-4.4 2.5-4.4s2.4 2 2.4 4.5-2.5 4.4-2.5 4.4-2.4-2-2.3-4.5m9 3.4c2.2 1 2.8 4.2 2.8 4.2s-3 1.3-5 .2S96 99 96 99s3-1.3 5-.2m5.7-3c2 1 2.4 3.6 2.4 3.6s-2.5 1-4.3.1-2.4-3.6-2.4-3.6 2.5-1 4.3-.1m-6-3.6c.3-2 2.6-3.2 2.6-3.2s1.7 2 1.3 4-2.6 3.2-2.6 3.2-1.7-2-1.3-4m7.4-1.5c.3-1.6 2.2-2.7 2.2-2.7s1.4 1.6 1 3.3-2.2 2.7-2.2 2.7-1.4-1.6-1-3.3m5 3.8c1.2 1 1 3.3 1 3.3s-2 .3-3.4-.8-1-3.3-1-3.3 2-.3 3.4.8m2.4-3.6c1.6-.3 3.3 1 3.3 1s-1 2-2.7 2.2-3.3-1-3.3-1 1-2 2.7-2.2"/></g><path d="M9.8 56l.7 1.5a.2.2 0 0 0 .1.1l1.5.7a.2.2 0 0 1 0 .4l-1.5.7a.2.2 0 0 0-.1.1L9.8 61a.2.2 0 0 1-.4 0l-.7-1.5a.2.2 0 0 0-.1-.1L7 58.7a.2.2 0 0 1 0-.4l1.5-.7a.2.2 0 0 0 .1-.1l.7-1.5a.2.2 0 0 1 .4 0m-8-2.4l.4 1s0 .1.1.1l1 .4a.1.1 0 0 1 0 .2l-1 .4a.1.1 0 0 0-.1.1l-.4 1a.1.1 0 0 1-.2 0l-.4-1a.1.1 0 0 0-.1-.1l-1-.4a.1.1 0 0 1 0-.2l1-.4a.1.1 0 0 0 .1-.1l.4-1a.1.1 0 0 1 .2 0m110-41.2l.8 1.8a.3.3 0 0 0 .1.1l1.8.8a.3.3 0 0 1 0 .5l-1.8.8a.3.3 0 0 0-.1.1l-.8 1.8a.3.3 0 0 1-.5 0l-.8-1.8a.3.3 0 0 0-.1-.1l-1.8-.8a.3.3 0 0 1 0-.5l1.8-.8a.3.3 0 0 0 .1-.1l.8-1.8a.3.3 0 0 1 .5 0m3-10l.4 1a.1.1 0 0 0 .1.1l1 .4a.1.1 0 0 1 0 .2l-1 .4a.1.1 0 0 0-.1.1l-.4 1a.1.1 0 0 1-.2 0l-.4-1a.1.1 0 0 0-.1-.1l-1-.4a.1.1 0 0 1 0-.2l1-.4a.1.1 0 0 0 .1-.1l.4-1a.1.1 0 0 1 .2 0m-10-2.3l.7 1.4 1.3.6a.2.2 0 0 1 0 .4l-1.3.6a.2.2 0 0 0-.1.1l-.6 1.3a.2.2 0 0 1-.4 0l-.6-1.3a.2.2 0 0 0-.1-.1l-1.3-.6a.2.2 0 0 1 0-.4l1.3-.6a.2.2 0 0 0 .1-.1l.6-1.3a.2.2 0 0 1 .4 0" fill="#eef0f1"/><g transform="translate(29.5 4.5)"><use fill="#000" filter="url(#C)" xlink:href="#B"/><use fill="#fff" xlink:href="#B"/></g><path fill="#e6e8e9" d="M43.4 76h38a4.5 4.5 0 1 1 0 9h-38a4.5 4.5 0 1 1 0-9zm0-15h38a4.5 4.5 0 1 1 0 9h-38a4.5 4.5 0 1 1 0-9zm0-16h38a4.5 4.5 0 1 1 0 9h-38a4.5 4.5 0 1 1 0-9zm0-15h38a4.5 4.5 0 1 1 0 9h-38a4.5 4.5 0 0 1 0-9z"/><path fill="#b6b8b9" d="M45 94h35a6 6 0 1 1 0 12H45a6 6 0 1 1 0-12z"/><rect width="24.5" height="23.8" fill="#e00000" rx="11.9" x="82" y="5"/><path fill="#fff" d="M99.4 16h-3.6v-3.5c0-.7-.5-1.2-1.2-1.2s-1.2.5-1.2 1.2V16h-3.6c-.7 0-1.2.5-1.2 1.2s.5 1.2 1.2 1.2h3.6V22c0 .7.5 1.2 1.2 1.2s1.2-.5 1.2-1.2v-3.5h3.6c.7 0 1.2-.5 1.2-1.2S100 16 99.4 16z"/></g></svg>