<svg width="102" height="100" viewBox="0 0 102 100" fill="none" xmlns="http://www.w3.org/2000/svg">
<path d="M13.9142 40.8595L16.5128 42.281L13.9142 43.7018L12.4935 46.3004L11.0719 43.7018L8.47412 42.281L11.0719 40.8595L12.4935 38.2617L13.9142 40.8595Z" fill="#E0E1E3" fill-opacity="0.5"/>
<path d="M12.4935 46.6921C12.3496 46.6921 12.2175 46.6135 12.1483 46.4877L10.7826 43.9905L8.28548 42.6248C8.15968 42.5556 8.08105 42.4235 8.08105 42.2796C8.08105 42.1358 8.15968 42.0037 8.28548 41.9345L10.7826 40.5688L12.1483 38.0716C12.2175 37.9458 12.3496 37.8672 12.4935 37.8672C12.6374 37.8672 12.7695 37.9458 12.8387 38.0716L14.2044 40.5688L16.7015 41.9345C16.8273 42.0037 16.906 42.1358 16.906 42.2796C16.906 42.4235 16.8273 42.5556 16.7015 42.6248L14.2044 43.9905L12.8387 46.4877C12.7695 46.6135 12.6374 46.6921 12.4935 46.6921ZM9.29346 42.2796L11.2614 43.356C11.3275 43.3922 11.3817 43.4464 11.4179 43.5125L12.4943 45.4805L13.5707 43.5125C13.6068 43.4464 13.6611 43.3922 13.7271 43.356L15.6951 42.2796L13.7271 41.2033C13.6611 41.1671 13.6068 41.1128 13.5707 41.0468L12.4943 39.0788L11.4179 41.0468C11.3817 41.1128 11.3275 41.1671 11.2614 41.2033L9.29346 42.2796Z" fill="#E0E1E3" fill-opacity="0.5"/>
<path d="M38.1833 16.59L40.7818 18.0115L38.1833 19.4323L36.7625 22.0308L35.341 19.4323L32.7432 18.0115L35.341 16.59L36.7625 13.9922L38.1833 16.59Z" fill="#E0E1E3" fill-opacity="0.5"/>
<path d="M36.7626 22.4226C36.6187 22.4226 36.4866 22.3439 36.4174 22.2181L35.0517 19.721L32.5545 18.3553C32.4287 18.2861 32.3501 18.154 32.3501 18.0101C32.3501 17.8662 32.4287 17.7341 32.5545 17.6649L35.0517 16.2992L36.4174 13.8021C36.4866 13.6763 36.6187 13.5977 36.7626 13.5977C36.9064 13.5977 37.0385 13.6763 37.1077 13.8021L38.4734 16.2992L40.9706 17.6649C41.0964 17.7341 41.175 17.8662 41.175 18.0101C41.175 18.154 41.0964 18.2861 40.9706 18.3553L38.4734 19.721L37.1077 22.2181C37.0385 22.3439 36.9064 22.4226 36.7626 22.4226ZM33.5625 18.0101L35.5305 19.0865C35.5965 19.1227 35.6508 19.1769 35.687 19.243L36.7633 21.211L37.8397 19.243C37.8759 19.1769 37.9301 19.1227 37.9962 19.0865L39.9642 18.0101L37.9962 16.9337C37.9301 16.8976 37.8759 16.8433 37.8397 16.7773L36.7633 14.8093L35.687 16.7773C35.6508 16.8433 35.5965 16.8976 35.5305 16.9337L33.5625 18.0101Z" fill="#E0E1E3" fill-opacity="0.5"/>
<g clip-path="url(#clip0_1397_277292)">
<g opacity="0.7">
<path d="M13.6024 78.0422C13.4751 78.5529 12.6065 81.0068 8.1335 78.2347C8.07675 78.2 8.02999 78.1511 7.99779 78.0928C7.9656 78.0345 7.94907 77.9689 7.94983 77.9024C7.95059 77.8358 7.9686 77.7706 8.00211 77.7131C8.03561 77.6556 8.08347 77.6077 8.141 77.5743C12.6742 74.8873 13.4964 77.3544 13.6152 77.8673C13.6251 77.9258 13.6208 77.9858 13.6024 78.0422Z" fill="#C2ECC3"/>
<path d="M23.181 86.0283C23.27 86.5435 23.4657 89.1437 18.2385 88.4082C18.1731 88.3993 18.1112 88.3737 18.0587 88.3337C18.0061 88.2938 17.9648 88.241 17.9388 88.1804C17.9127 88.1198 17.9027 88.0535 17.9098 87.9879C17.9169 87.9223 17.9409 87.8597 17.9793 87.8061C21.0512 83.5113 22.8001 85.4493 23.1138 85.8663C23.1487 85.9142 23.1717 85.9697 23.181 86.0283Z" fill="#C2ECC3"/>
<path d="M17.8175 82.2808C17.8336 82.8563 17.6582 86.1283 11.3838 84.1808C11.3207 84.1608 11.2636 84.1251 11.2181 84.077C11.1725 84.0289 11.14 83.97 11.1234 83.9059C11.1069 83.8418 11.1069 83.7745 11.1235 83.7103C11.1401 83.6462 11.1727 83.5874 11.2183 83.5393C15.7898 78.8241 17.516 81.6095 17.7728 82.1213C17.7997 82.1704 17.8149 82.2249 17.8175 82.2808Z" fill="#C2ECC3"/>
<path d="M10.0781 73.3967C9.95763 73.8232 9.28946 75.4179 6.22879 73.5837C6.17329 73.5498 6.12757 73.502 6.09606 73.445C6.06454 73.3881 6.04833 73.3239 6.049 73.2589C6.04967 73.1938 6.0672 73.13 6.09987 73.0737C6.13254 73.0174 6.17925 72.9706 6.23542 72.9377C9.3296 71.1618 9.96833 72.7687 10.0789 73.1985C10.0965 73.2634 10.0962 73.3319 10.0781 73.3967Z" fill="#C2ECC3"/>
<path d="M28.5712 88.2162C28.7224 88.6418 29.0776 90.3077 25.581 90.5876C25.5123 90.593 25.4434 90.5803 25.3811 90.5507C25.3188 90.5212 25.2653 90.4759 25.226 90.4193C25.1867 90.3627 25.1629 90.2968 25.1569 90.2281C25.1509 90.1594 25.163 90.0904 25.192 90.0279C26.678 86.8418 28.1048 87.7597 28.4548 88.04C28.5092 88.0868 28.5495 88.1478 28.5712 88.2162Z" fill="#C2ECC3"/>
<path d="M13.5225 77.5456C14.0287 77.6845 16.5918 78.1307 16.3764 72.8659C16.3752 72.799 16.3566 72.7336 16.3224 72.6761C16.2882 72.6186 16.2396 72.571 16.1814 72.538C16.1232 72.5051 16.0574 72.4879 15.9905 72.4881C15.9236 72.4883 15.8579 72.506 15.7999 72.5394C11.2328 75.1672 12.9794 77.0964 13.3684 77.4515C13.4113 77.4949 13.4642 77.5272 13.5225 77.5456Z" fill="#C2ECC3"/>
<path d="M23.0891 85.6601C23.6128 85.6417 26.1979 85.3051 24.4164 80.3366C24.3947 80.2742 24.3572 80.2185 24.3075 80.1749C24.2578 80.1314 24.1977 80.1016 24.1329 80.0884C24.0682 80.0751 24.0012 80.079 23.9384 80.0995C23.8756 80.1201 23.8193 80.1566 23.7749 80.2056C20.1927 84.085 22.4416 85.4047 22.9167 85.6249C22.9704 85.6505 23.0296 85.6625 23.0891 85.6601Z" fill="#C2ECC3"/>
<path d="M17.8278 81.7996C18.3965 81.8781 21.6694 82.06 20.4215 75.6133C20.4089 75.548 20.3798 75.487 20.3369 75.4361C20.294 75.3853 20.2388 75.3463 20.1765 75.3229C20.1142 75.2994 20.047 75.2924 19.9812 75.3024C19.9154 75.3124 19.8533 75.3392 19.8008 75.38C14.6141 79.4058 17.1941 81.4259 17.6668 81.7396C17.7144 81.7731 17.7699 81.7938 17.8278 81.7996Z" fill="#C2ECC3"/>
<path d="M10.3723 73.2199C10.8036 73.3267 12.5214 73.5251 12.4248 69.9594C12.4227 69.8946 12.4038 69.8315 12.3699 69.7762C12.3361 69.7208 12.2885 69.6753 12.2317 69.6439C12.175 69.6125 12.111 69.5964 12.0462 69.5972C11.9814 69.5979 11.9178 69.6155 11.8618 69.6482C8.79555 71.4715 9.88035 72.8166 10.2017 73.1245C10.2488 73.1712 10.3078 73.2042 10.3723 73.2199Z" fill="#C2ECC3"/>
<path d="M28.7149 87.8996C29.1357 87.7308 30.6226 86.9026 28.5233 84.0827C28.4824 84.0276 28.4279 83.984 28.365 83.9563C28.3022 83.9287 28.2332 83.9179 28.1649 83.925C28.0966 83.9321 28.0314 83.957 27.9756 83.997C27.9198 84.0371 27.8755 84.091 27.8469 84.1534C26.4278 87.3699 28.0638 87.846 28.509 87.916C28.5779 87.9283 28.6488 87.9226 28.7149 87.8996Z" fill="#C2ECC3"/>
<path d="M5.93759 64.9752C10.1181 67.4203 8.65844 69.271 8.22494 69.6962C8.15982 69.762 8.07808 69.8088 7.98845 69.8317C7.39797 69.9826 5.05937 70.2777 5.12757 65.4342C5.12851 65.3399 5.1542 65.2476 5.20208 65.1663C5.24996 65.0851 5.31834 65.0179 5.40037 64.9714C5.4824 64.9249 5.57521 64.9008 5.6695 64.9015C5.76378 64.9022 5.85622 64.9276 5.93759 64.9752Z" fill="#C2ECC3"/>
<path d="M31.2489 88.6101L31.2986 88.1108C23.9736 87.3812 18.0383 82.2702 14.3482 78.1086C11.9153 75.3635 9.79429 72.3571 8.02401 69.1446L7.57807 69.3751C9.37295 72.6223 11.5216 75.6608 13.9849 78.4353C17.7169 82.6578 23.7558 87.8546 31.2489 88.6101Z" fill="#C2ECC3"/>
</g>
</g>
<g opacity="0.7">
<path d="M77.6994 69.1488C78.0255 69.9337 80.0032 73.6433 86.4791 68.1402C86.5614 68.071 86.6243 67.9817 86.6617 67.8809C86.6991 67.7801 86.7097 67.6714 86.6925 67.5653C86.6752 67.4592 86.6308 67.3593 86.5634 67.2756C86.4961 67.1918 86.4081 67.1269 86.3082 67.0873C78.4225 63.8872 77.7031 68.0249 77.637 68.8725C77.6351 68.9683 77.6565 69.0631 77.6994 69.1488Z" fill="#C2ECC3"/>
<path d="M64.3259 84.2092C64.3077 85.0534 64.6209 89.2528 72.7913 86.8206C72.8935 86.7906 72.9863 86.7347 73.0606 86.6583C73.1348 86.5819 73.1881 86.4876 73.2152 86.3846C73.2422 86.2816 73.2422 86.1733 73.2151 86.0702C73.1879 85.9672 73.1346 85.873 73.0603 85.7966C67.1213 79.6774 64.7948 83.193 64.3942 83.9344C64.35 84.0193 64.3266 84.1135 64.3259 84.2092Z" fill="#C2ECC3"/>
<path d="M71.9889 76.9319C72.1016 77.8548 73.169 83.0378 82.7201 78.418C82.8161 78.3709 82.8986 78.3001 82.9598 78.2123C83.0209 78.1246 83.0588 78.0227 83.0698 77.9163C83.0808 77.8099 83.0645 77.7025 83.0226 77.6041C82.9807 77.5057 82.9144 77.4195 82.8301 77.3537C74.3951 70.9239 72.3087 75.7873 72.0219 76.6665C71.9908 76.7513 71.9795 76.8421 71.9889 76.9319Z" fill="#C2ECC3"/>
<path d="M82.2098 60.8786C82.5049 61.5306 83.9556 63.9165 88.4019 60.251C88.4824 60.1834 88.5439 60.096 88.5805 59.9975C88.6171 59.899 88.6276 59.7927 88.6109 59.6889C88.5941 59.5852 88.5508 59.4875 88.4851 59.4055C88.4194 59.3235 88.3335 59.2599 88.2359 59.221C82.8674 57.1295 82.2341 59.8493 82.1609 60.5622C82.1485 60.6702 82.1654 60.7794 82.2098 60.8786Z" fill="#C2ECC3"/>
<path d="M56.2445 89.0008C56.1056 89.7168 55.9392 92.4626 61.5904 92.0683C61.7014 92.0603 61.8084 92.0234 61.9007 91.9612C61.9931 91.8991 62.0675 91.8138 62.1167 91.714C62.1659 91.6142 62.1881 91.5032 62.1811 91.3921C62.1741 91.281 62.1382 91.1737 62.0768 91.0808C58.9372 86.3504 56.8796 88.1595 56.3881 88.6914C56.3125 88.7792 56.2628 88.8863 56.2445 89.0008Z" fill="#C2ECC3"/>
<path d="M77.7081 68.3369C76.9331 68.6805 72.9474 70.0098 72.0245 61.5506C72.0103 61.4435 72.0243 61.3345 72.0651 61.2345C72.1059 61.1344 72.172 61.0467 72.2571 60.98C72.3421 60.9134 72.443 60.87 72.5499 60.8543C72.6568 60.8386 72.766 60.851 72.8666 60.8904C80.7922 63.9879 78.4673 67.4889 77.9316 68.1495C77.8734 68.2292 77.7967 68.2935 77.7081 68.3369Z" fill="#C2ECC3"/>
<path d="M64.3833 83.5976C63.5426 83.6943 59.3333 83.7788 60.9828 75.4158C61.0023 75.3109 61.0488 75.2129 61.1177 75.1315C61.1866 75.05 61.2755 74.9879 61.3756 74.9512C61.4758 74.9145 61.5838 74.9045 61.689 74.9223C61.7942 74.94 61.893 74.9848 61.9757 75.0522C68.6297 80.3854 65.3558 83.0339 64.6502 83.4999C64.5705 83.5537 64.4789 83.5872 64.3833 83.5976Z" fill="#C2ECC3"/>
<path d="M71.8569 76.1673C70.9676 76.4296 65.7849 77.5074 66.2265 66.9124C66.2308 66.805 66.2627 66.7006 66.3189 66.609C66.3752 66.5175 66.454 66.4419 66.5478 66.3896C66.6416 66.3372 66.7473 66.3098 66.8547 66.31C66.9622 66.3102 67.0678 66.3379 67.1614 66.3905C76.4129 71.5713 72.7789 75.418 72.0996 76.0327C72.0317 76.0977 71.948 76.1441 71.8569 76.1673Z" fill="#C2ECC3"/>
<path d="M81.6982 60.672C81.0351 60.9464 78.3396 61.6766 77.636 55.9592C77.6238 55.8552 77.6388 55.7498 77.6795 55.6533C77.7202 55.5569 77.7853 55.4726 77.8684 55.4089C77.9515 55.3451 78.0497 55.304 78.1534 55.2896C78.2571 55.2752 78.3628 55.288 78.4601 55.3267C83.7954 57.5006 82.3867 59.9096 81.9476 60.4786C81.8836 60.5646 81.7974 60.6314 81.6982 60.672Z" fill="#C2ECC3"/>
<path d="M55.9382 88.5284C55.2256 88.36 52.6519 87.3952 55.3257 82.387C55.3777 82.2891 55.4543 82.2064 55.5481 82.1471C55.6418 82.0878 55.7493 82.0539 55.8601 82.0489C55.9709 82.0439 56.0811 82.0678 56.1798 82.1183C56.2785 82.1689 56.3623 82.2443 56.4229 82.3372C59.4631 87.1321 56.965 88.2861 56.271 88.505C56.1639 88.5411 56.0493 88.5492 55.9382 88.5284Z" fill="#C2ECC3"/>
<path d="M86.7957 46.4388C80.708 51.3492 83.4844 53.9535 84.2789 54.5282C84.3987 54.6175 84.5405 54.6726 84.6892 54.6876C85.6685 54.7865 89.474 54.695 88.1996 46.9768C88.1755 46.8265 88.1122 46.6851 88.0162 46.5669C87.9202 46.4487 87.7948 46.3579 87.6526 46.3034C87.5105 46.2489 87.3564 46.2327 87.206 46.2565C87.0556 46.2802 86.9141 46.3431 86.7957 46.4388Z" fill="#C2ECC3"/>
<path d="M52.0631 90.2731L51.8634 89.4876C63.3854 86.5601 71.6338 76.9701 76.5251 69.4363C79.7497 64.4672 82.4134 59.156 84.4674 53.5998L85.235 53.8606C83.1501 59.478 80.4499 64.8473 77.1839 69.8707C72.2403 77.5116 63.8471 87.2637 52.0631 90.2731Z" fill="#C2ECC3"/>
</g>
<path d="M18.8109 20.2291L24.573 23.3812L18.8109 26.5316L15.6605 32.2937L12.5084 26.5316L6.74805 23.3812L12.5084 20.2291L15.6605 14.4688L18.8109 20.2291Z" fill="#E0E1E3"/>
<path d="M15.6592 33.1661C15.3402 33.1661 15.0473 32.9917 14.8938 32.7128L11.8655 27.1756L6.32829 24.1472C6.04934 23.9938 5.875 23.7009 5.875 23.3819C5.875 23.0628 6.04934 22.7699 6.32829 22.6165L11.8655 19.5881L14.8938 14.051C15.0473 13.772 15.3402 13.5977 15.6592 13.5977C15.9783 13.5977 16.2712 13.772 16.4246 14.051L19.453 19.5881L24.9901 22.6165C25.2691 22.7699 25.4434 23.0628 25.4434 23.3819C25.4434 23.7009 25.2691 23.9938 24.9901 24.1472L19.453 27.1756L16.4246 32.7128C16.2712 32.9917 15.9783 33.1661 15.6592 33.1661ZM8.5634 23.3819L12.9272 25.7686C13.0737 25.8488 13.194 25.9691 13.2742 26.1156L15.661 30.4794L18.0477 26.1156C18.1279 25.9691 18.2482 25.8488 18.3947 25.7686L22.7585 23.3819L18.3947 20.9951C18.2482 20.9149 18.1279 20.7946 18.0477 20.6481L15.661 16.2843L13.2742 20.6481C13.194 20.7946 13.0737 20.9149 12.9272 20.9951L8.5634 23.3819Z" fill="#E0E1E3"/>
<path fill-rule="evenodd" clip-rule="evenodd" d="M36.2147 31.25H28.2132C25.6346 31.25 23.5249 33.3745 23.5249 35.9711V90.2638C23.5249 92.8604 23.5249 96.1651 28.2132 94.9849L42.278 87.9032L56.3429 94.9849C61.0312 96.1651 61.0312 92.8604 61.0312 90.2638V57.2161V56.0664C58.6763 57.1318 56.0621 57.7249 53.3094 57.7249C42.9523 57.7249 34.5562 49.3288 34.5562 38.9718C34.5562 36.2191 35.1493 33.6049 36.2147 31.25Z" fill="#EA5656"/>
<path fill-rule="evenodd" clip-rule="evenodd" d="M54.5 50C61.4036 50 67 44.4036 67 37.5C67 30.5964 61.4036 25 54.5 25C47.5964 25 42 30.5964 42 37.5C42 44.4036 47.5964 50 54.5 50Z" fill="#69C966"/>
<path d="M51.4089 40.5105L48.0577 37.1593L46.9165 38.2924L51.4089 42.7849L61.0528 33.141L59.9197 32.0078L51.4089 40.5105Z" fill="white"/>
<defs>
<clipPath id="clip0_1397_277292">
<rect width="21.2096" height="30.243" fill="white" transform="matrix(-0.200091 0.979777 0.979777 0.200091 5.24414 64.8047)"/>
</clipPath>
</defs>
</svg>
