<svg width="12" height="18" viewBox="0 0 12 18" fill="none" xmlns="http://www.w3.org/2000/svg">
<path d="M9.3333 0.666656H2.66663C2.00359 0.666656 1.36771 0.930049 0.898866 1.39889C0.430025 1.86773 0.166633 2.50362 0.166633 3.16666V16.5C0.16605 16.6468 0.204278 16.7912 0.277448 16.9185C0.350617 17.0458 0.456129 17.1516 0.583299 17.225C0.709982 17.2981 0.853685 17.3366 0.999966 17.3366C1.14625 17.3366 1.28995 17.2981 1.41663 17.225L5.99997 14.575L10.5833 17.225C10.7103 17.297 10.854 17.3343 11 17.3333C11.1459 17.3343 11.2896 17.297 11.4166 17.225C11.5438 17.1516 11.6493 17.0458 11.7225 16.9185C11.7957 16.7912 11.8339 16.6468 11.8333 16.5V3.16666C11.8333 2.50362 11.5699 1.86773 11.1011 1.39889C10.6322 0.930049 9.99634 0.666656 9.3333 0.666656ZM10.1666 15.0583L6.41663 12.8917C6.28995 12.8185 6.14625 12.78 5.99997 12.78C5.85369 12.78 5.70998 12.8185 5.5833 12.8917L1.8333 15.0583V3.16666C1.8333 2.94564 1.9211 2.73368 2.07738 2.5774C2.23366 2.42112 2.44562 2.33332 2.66663 2.33332H9.3333C9.55431 2.33332 9.76628 2.42112 9.92256 2.5774C10.0788 2.73368 10.1666 2.94564 10.1666 3.16666V15.0583Z" fill="#23262A"/>
</svg>
