<svg width="12" height="16" viewBox="0 0 12 16" fill="none" xmlns="http://www.w3.org/2000/svg">
<path d="M9.57499 9.90834L5.99999 13.4917L2.42499 9.90834C2.26807 9.75142 2.05524 9.66327 1.83333 9.66327C1.61141 9.66327 1.39858 9.75142 1.24166 9.90834C1.08474 10.0653 0.996582 10.2781 0.996582 10.5C0.996582 10.7219 1.08474 10.9348 1.24166 11.0917L5.40832 15.2583C5.48579 15.3365 5.57796 15.3984 5.67951 15.4408C5.78106 15.4831 5.88998 15.5048 5.99999 15.5048C6.11 15.5048 6.21892 15.4831 6.32047 15.4408C6.42202 15.3984 6.51419 15.3365 6.59166 15.2583L10.7583 11.0917C10.836 11.014 10.8977 10.9217 10.9397 10.8202C10.9818 10.7187 11.0034 10.6099 11.0034 10.5C11.0034 10.3901 10.9818 10.2813 10.9397 10.1798C10.8977 10.0783 10.836 9.98604 10.7583 9.90834C10.6806 9.83065 10.5884 9.76901 10.4869 9.72696C10.3853 9.68491 10.2765 9.66327 10.1667 9.66327C10.0568 9.66327 9.94797 9.68491 9.84645 9.72696C9.74493 9.76901 9.65269 9.83065 9.57499 9.90834ZM2.42499 6.09168L5.99999 2.50834L9.57499 6.09168C9.65246 6.16978 9.74463 6.23178 9.84618 6.27409C9.94773 6.31639 10.0566 6.33818 10.1667 6.33818C10.2767 6.33818 10.3856 6.31639 10.4871 6.27409C10.5887 6.23178 10.6809 6.16978 10.7583 6.09168C10.8364 6.01421 10.8984 5.92204 10.9407 5.82049C10.983 5.71894 11.0048 5.61002 11.0048 5.50001C11.0048 5.39 10.983 5.28108 10.9407 5.17953C10.8984 5.07798 10.8364 4.98581 10.7583 4.90834L6.59166 0.741677C6.51419 0.66357 6.42202 0.601575 6.32047 0.559267C6.21892 0.51696 6.11 0.495178 5.99999 0.495178C5.88998 0.495178 5.78106 0.51696 5.67951 0.559267C5.57796 0.601575 5.48579 0.66357 5.40832 0.741677L1.24166 4.90834C1.08474 5.06526 0.996582 5.27809 0.996582 5.50001C0.996582 5.72193 1.08474 5.93476 1.24166 6.09168C1.39858 6.2486 1.61141 6.33675 1.83333 6.33675C2.05524 6.33675 2.26807 6.2486 2.42499 6.09168Z" fill="#23262A"/>
</svg>
