<svg xmlns="http://www.w3.org/2000/svg" width="17.473" height="14.534" viewBox="0 0 17.473 14.534">
  <path id="Path_2168" data-name="Path 2168" d="M1489.6,873.887a6.915,6.915,0,0,1-1.2.406,3.758,3.758,0,0,0,.991-1.579h0a.2.2,0,0,0-.288-.229h0a6.954,6.954,0,0,1-1.842.761.479.479,0,0,1-.115.014.488.488,0,0,1-.322-.123,3.769,3.769,0,0,0-2.493-.941,4.023,4.023,0,0,0-1.193.184,3.649,3.649,0,0,0-2.459,2.629,4.012,4.012,0,0,0-.089,1.387.135.135,0,0,1-.034.106.14.14,0,0,1-.1.047h-.014a9.878,9.878,0,0,1-6.789-3.627h0a.2.2,0,0,0-.323.025h0a3.771,3.771,0,0,0,.613,4.579,3.384,3.384,0,0,1-.859-.333h0a.2.2,0,0,0-.293.17h0a3.772,3.772,0,0,0,2.2,3.475h-.08a3.374,3.374,0,0,1-.635-.061h0a.2.2,0,0,0-.224.254h0a3.775,3.775,0,0,0,2.982,2.568,6.952,6.952,0,0,1-3.893,1.182h-.436a.289.289,0,0,0-.282.217.3.3,0,0,0,.143.33,10.34,10.34,0,0,0,5.2,1.4,10.481,10.481,0,0,0,4.44-.942,9.8,9.8,0,0,0,3.249-2.434,10.675,10.675,0,0,0,1.989-3.331,10.524,10.524,0,0,0,.676-3.646v-.057a.641.641,0,0,1,.24-.5,7.446,7.446,0,0,0,1.5-1.644h0a.2.2,0,0,0-.244-.289Z" transform="translate(-1472.405 -872.196)" fill="#fff"/>
</svg>
