<svg width="49" height="48" viewBox="0 0 49 48" fill="none" xmlns="http://www.w3.org/2000/svg">
<ellipse cx="24.0205" cy="24" rx="24" ry="24" fill="#4D9FEB"/>
<path d="M36.8279 16.4084C35.9918 16.7685 35.1129 17.0193 34.2127 17.1545C34.6336 17.0823 35.2528 16.3241 35.4993 16.0172C35.8737 15.5544 36.1591 15.0259 36.3409 14.4588C36.3409 14.4167 36.383 14.3565 36.3409 14.3264C36.3197 14.3148 36.2959 14.3088 36.2718 14.3088C36.2476 14.3088 36.2239 14.3148 36.2027 14.3264C35.2253 14.8562 34.185 15.2605 33.1066 15.5299C33.069 15.5413 33.029 15.5424 32.9909 15.5328C32.9527 15.5233 32.9179 15.5035 32.8902 15.4757C32.8062 15.3757 32.7158 15.2812 32.6196 15.1929C32.1798 14.7984 31.6807 14.4756 31.1407 14.2362C30.4118 13.9369 29.6245 13.8072 28.8382 13.8571C28.0753 13.9053 27.3304 14.1101 26.6499 14.4588C25.9798 14.8264 25.3909 15.3258 24.9185 15.927C24.4216 16.5458 24.0629 17.2639 23.8664 18.033C23.7045 18.7646 23.6861 19.5207 23.8123 20.2593C23.8123 20.3857 23.8123 20.4037 23.7041 20.3857C19.4177 19.7539 15.9008 18.2316 13.0272 14.9642C12.9009 14.8198 12.8348 14.8198 12.7326 14.9642C11.4821 16.8657 12.0893 19.8742 13.6524 21.3605C13.8628 21.559 14.0792 21.7516 14.3077 21.9321C13.591 21.8812 12.8919 21.6868 12.2517 21.3605C12.1314 21.2822 12.0653 21.3244 12.0593 21.4688C12.0422 21.669 12.0422 21.8703 12.0593 22.0705C12.1847 23.03 12.5625 23.9389 13.154 24.7043C13.7455 25.4698 14.5295 26.0642 15.4259 26.4269C15.6444 26.5206 15.8721 26.5912 16.1052 26.6375C15.4418 26.7682 14.7613 26.7886 14.0913 26.6977C13.947 26.6676 13.8929 26.7458 13.947 26.8842C14.8307 29.2911 16.7485 30.0252 18.1552 30.4343C18.3476 30.4644 18.54 30.4644 18.7564 30.5125C18.7564 30.5125 18.7564 30.5125 18.7203 30.5486C18.3055 31.3068 16.6282 31.8183 15.8587 32.083C14.4542 32.588 12.9567 32.781 11.4701 32.6486C11.2357 32.6125 11.1816 32.6185 11.1214 32.6486C11.0613 32.6787 11.1214 32.7449 11.1876 32.8051C11.4882 33.0036 11.7887 33.1781 12.1014 33.3466C13.032 33.8547 14.0159 34.2583 15.0351 34.55C20.3135 36.0062 26.2531 34.9351 30.2149 30.9939C33.329 27.9011 34.4232 23.6349 34.4232 19.3628C34.4232 19.2003 34.6216 19.104 34.7358 19.0198C35.5236 18.4054 36.2182 17.6798 36.7978 16.8657C36.8982 16.7443 36.9497 16.5898 36.9421 16.4324C36.9421 16.3422 36.9421 16.3602 36.8279 16.4084Z" fill="white"/>
</svg>
