<svg width="258" height="223" fill="none" xmlns="http://www.w3.org/2000/svg"><path fill="#F5F9FE" d="M0 0h258v222.74H0z"/><path d="M69.114 207.319c-56.721-3.518-54.413-58.268-46.169-85.203 7.237-19.698 31.714-65.91 71.727-93.174 50.015-34.082 146.748-3.299 144.55 59.642-2.199 62.941-54.138 92.075-88.215 96.473-34.077 4.397-10.993 26.66-81.894 22.262z" fill="#D8E7FC"/><path fill-rule="evenodd" clip-rule="evenodd" d="M86.852 175.648c-4.8-19.5-15.6-37.5-30.6-51l.6-.75c15 13.5 26.1 31.5 31.05 51l-1.05.3v.45z" fill="#C7F2C6"/><path fill-rule="evenodd" clip-rule="evenodd" d="M85.652 147.896c2.1-3.6.3-8.55.3-8.55s-5.25.75-7.5 4.5-.3 8.55-.3 8.55 5.25-.75 7.5-4.5zm-16.05-3c-4.2-.3-7.8 3.45-7.8 3.45s3 4.5 7.2 4.8c4.2.3 7.8-3.45 7.8-3.45s-3-4.5-7.2-4.8zm-5.4-9.75c-3.6-.3-6.75 3-6.75 3s2.55 3.75 6 4.05c3.45.3 6.75-3 6.75-3s-2.55-3.75-6-4.05zm12 .15c1.2-3-.9-6.9-.9-6.9s-4.2 1.5-5.4 4.5c-1.2 3 .75 6.75.75 6.75s4.2-1.5 5.4-4.5l.15.15zm-9.45-9.15c1.05-2.7-.75-6-.75-6s-3.45 1.05-4.5 3.75c-1.05 2.7.75 6 .75 6s3.45-1.05 4.5-3.75zm-10.5.9c-3 .45-4.5 3.75-4.5 3.75s2.4 2.85 5.4 2.1c3-.75 4.5-3.75 4.5-3.75s-2.7-2.4-5.55-1.95l.15-.15zm-.3-7.35c-2.1-1.95-5.7-1.5-5.7-1.5s-.3 3.6 1.8 5.55c2.1 1.95 5.7 1.5 5.7 1.5s.3-3.6-1.8-5.55zm21 38.25c-4.2-1.05-9 2.25-9 2.25s2.4 5.25 6.6 6.3c4.2 1.05 9-2.25 9-2.25s-2.4-5.25-6.6-6.3zm15.45 2.4c2.25-3.75.3-9 .3-9s-5.7.75-7.95 4.5-.3 9-.3 9 5.7-.75 7.95-4.5z" fill="#C7F2C6"/><path fill-rule="evenodd" clip-rule="evenodd" d="M214.951 118.649c6.6 0 12-5.4 12-12s-5.4-12-12-12c-1.5 0-3 .3-4.2.75-.3-6.3-5.55-11.4-12-11.4-6 0-11.25 4.5-12 10.5a11.846 11.846 0 00-3.45-.45c-6.6 0-12 5.4-12 12s5.25 12 12 12l31.5.3.15.3zm-138.75-48.3c4.5 0 8.4-3.75 8.4-8.4s-3.75-8.4-8.4-8.4c-1.05 0-2.1.15-3 .6-.15-4.5-3.9-7.95-8.4-7.95s-7.95 3.3-8.4 7.5a8.552 8.552 0 00-2.4-.3c-4.5 0-8.4 3.75-8.4 8.4s3.75 8.4 8.4 8.4l22.2.3v-.15z" fill="url(#paint0_linear_1_10)"/><path fill-rule="evenodd" clip-rule="evenodd" d="M166.055 168.599c12.75-12.45 29.4-21 46.95-23.7v.9c-17.4 3-33.75 11.4-46.5 23.7l-.75-.75.3-.15z" fill="#C7F2C6"/><path fill-rule="evenodd" clip-rule="evenodd" d="M180.455 149.248c.15-3.6 3.75-6.6 3.75-6.6s3.6 3 3.6 6.75-3.75 6.6-3.75 6.6-3.6-3-3.45-6.75h-.15zm13.65 5.1c3.3 1.5 4.2 6.3 4.2 6.3s-4.5 1.95-7.5.3-4.65-6.3-4.65-6.3 4.5-1.95 7.5-.3h.45zm8.1-4.5c3 1.5 3.6 5.4 3.6 5.4s-3.75 1.5-6.45.15-3.6-5.4-3.6-5.4 3.75-1.5 6.45-.15zm-9-5.4c.45-3 3.9-4.8 3.9-4.8s2.55 3 1.95 6c-.6 3-3.9 4.8-3.9 4.8s-2.55-3-1.95-6zm11.1-2.25c.45-2.4 3.3-4.05 3.3-4.05s2.1 2.4 1.5 4.95c-.6 2.55-3.3 4.05-3.3 4.05s-2.1-2.4-1.5-4.95zm7.5 5.7c1.8 1.5 1.5 4.95 1.5 4.95s-3 .45-5.1-1.2c-2.1-1.65-1.5-4.95-1.5-4.95s3-.45 5.1 1.2zm3.6-5.4c2.4-.45 4.95 1.5 4.95 1.5s-1.5 3-4.05 3.3c-2.55.3-4.95-1.5-4.95-1.5s1.5-3 4.05-3.3z" fill="#C7F2C6"/><path fill-rule="evenodd" clip-rule="evenodd" d="M56.85 90.148l1.05 2.25a.3.3 0 00.15.15l2.25 1.05a.3.3 0 010 .6l-2.25 1.05a.3.3 0 00-.15.15l-1.05 2.25a.3.3 0 01-.6 0l-1.05-2.25a.3.3 0 00-.15-.15l-2.4-1.05a.3.3 0 110-.6l2.25-1.05a.3.3 0 00.15-.15l1.05-2.25a.3.3 0 01.6 0h.15zm-12.15-3.6l.6 1.5s0 .15.15.15l1.5.6a.15.15 0 010 .3l-1.5.6a.15.15 0 00-.15.15l-.6 1.5a.15.15 0 01-.3 0l-.6-1.5a.15.15 0 00-.15-.15l-1.5-.6a.15.15 0 110-.3l1.5-.6a.15.15 0 00.15-.15l.6-1.5a.15.15 0 11.3 0zm161.999-57.3l1.2 2.7a.46.46 0 00.15.15l2.7 1.2a.448.448 0 01.148.588.45.45 0 01-.148.162l-2.7 1.2a.458.458 0 00-.15.15l-1.2 2.7a.453.453 0 01-.588.148.453.453 0 01-.162-.148l-1.2-2.7a.448.448 0 00-.15-.15l-2.7-1.2a.451.451 0 010-.75l2.7-1.2a.45.45 0 00.15-.15l1.2-2.7a.452.452 0 01.588-.148.452.452 0 01.162.148zm4.5-15l.6 1.5a.15.15 0 00.15.15l1.5.6a.15.15 0 01.15.15.15.15 0 01-.15.15l-1.5.6a.15.15 0 00-.15.15l-.6 1.5a.15.15 0 01-.15.15.149.149 0 01-.15-.15l-.6-1.5a.15.15 0 00-.15-.15l-1.5-.6a.149.149 0 01-.15-.15.15.15 0 01.15-.15l1.5-.6a.149.149 0 00.15-.15l.6-1.5a.15.15 0 01.15-.15.15.15 0 01.15.15zm-15-3.45l1.05 2.1 1.95.9a.299.299 0 01.3.3.299.299 0 01-.3.3l-1.95.9a.302.302 0 00-.15.15l-.9 1.95a.299.299 0 01-.512.212.301.301 0 01-.088-.212l-.9-1.95a.298.298 0 00-.15-.15l-1.95-.9a.3.3 0 010-.6l1.95-.9a.298.298 0 00.15-.15l.9-1.95a.301.301 0 01.3-.3.299.299 0 01.3.3" fill="#EEF0F1"/><g filter="url(#filter0_d_1_10)"><path d="M87.149 181.947c-6 0-10.5-3.9-10.5-8.7v-135.6c0-4.8 4.8-8.7 10.5-8.7h75c6 0 10.5 3.9 10.5 8.7v135.6c0 4.8-4.8 8.7-10.5 8.7h-75z" fill="#000"/></g><path d="M87.149 181.947c-6 0-10.5-3.9-10.5-8.7v-135.6c0-4.8 4.8-8.7 10.5-8.7h75c6 0 10.5 3.9 10.5 8.7v135.6c0 4.8-4.8 8.7-10.5 8.7h-75z" fill="#fff"/><path d="M172.049 10.647h-1.05c-9.858 0-17.85 7.991-17.85 17.85 0 9.858 7.992 17.85 17.85 17.85h1.05c9.859 0 17.85-7.992 17.85-17.85 0-9.859-7.991-17.85-17.85-17.85z" fill="#E00000"/><path fill-rule="evenodd" clip-rule="evenodd" d="M179.248 27.148h-5.4v-5.25c0-1.05-.75-1.8-1.8-1.8s-1.8.75-1.8 1.8v5.25h-5.4c-1.05 0-1.8.75-1.8 1.8s.75 1.8 1.8 1.8h5.4v5.4c0 1.05.75 1.8 1.8 1.8s1.8-.75 1.8-1.8v-5.25h5.4c1.05 0 1.8-.75 1.8-1.8s-.9-1.95-1.8-1.95z" fill="#fff"/><path fill-rule="evenodd" clip-rule="evenodd" d="M96.151 125.399h58.5a4.649 4.649 0 010 9.15h-58.5a4.652 4.652 0 01-2.738-7.555 4.65 4.65 0 012.738-1.595z" fill="#EBEBEB"/><path fill-rule="evenodd" clip-rule="evenodd" d="M97.651 141.447h55.05a6.303 6.303 0 016.3 6.3 6.303 6.303 0 01-6.3 6.3h-55.05a6.302 6.302 0 01-6.3-6.3 6.301 6.301 0 016.3-6.3z" fill="#FFC7C7"/><mask id="a" style="mask-type:alpha" maskUnits="userSpaceOnUse" x="98" y="56" width="56" height="56"><path d="M126 111.749c15.243 0 27.6-12.357 27.6-27.6 0-15.243-12.357-27.6-27.6-27.6-15.243 0-27.6 12.357-27.6 27.6 0 15.243 12.357 27.6 27.6 27.6z" fill="#fff"/></mask><g mask="url(#a)"><path d="M125.883 111.749c-15.243 0-27.6-12.357-27.6-27.6 0-15.243 12.357-27.6 27.6-27.6 15.243 0 27.6 12.357 27.6 27.6 0 15.243-12.357 27.6-27.6 27.6z" fill="url(#paint1_linear_1_10)"/><path fill-rule="evenodd" clip-rule="evenodd" d="M129.904 87.6c0 3.75 1.5 6 5.1 6.9 3.6.9-.15 2.1-10.95 4.05l-5.7-2.25v-2.25c2.25-2.7 3.45-4.95 3.45-6.9 0-1.95 2.7-1.5 8.1.6v-.15z" fill="#FCBB91"/><path d="M133.053 77.698c1.2.45 2.1 1.5 2.1 3s-.9 2.7-2.25 3c-.75 4.2-6 7.5-8.55 7.5-3 0-8.7-3.75-8.7-8.4l.45-3.45a101.248 101.248 0 00-.45-3.6c0-4.5 3.9-8.4 8.7-8.4 4.8 0 8.7 3.75 8.7 8.4v2.25-.3z" fill="#FCBB91"/><path d="M133.053 77.698c1.2.45 2.1 1.5 2.1 3s-.9 2.7-2.25 3c-.75 4.2-6 7.5-8.55 7.5-3 0-8.7-3.75-8.7-8.4l.45-3.45a101.248 101.248 0 00-.45-3.6c0-4.5 3.9-8.4 8.7-8.4 4.8 0 8.7 3.75 8.7 8.4v2.25-.3z" fill="url(#paint2_linear_1_10)"/><path d="M132.753 83.55c0-.9.3-1.8.75-3a4.803 4.803 0 01-2.4-4.2c0-.45 0-.75.15-1.2h-.15c-2.4 0-4.5-1.8-4.5-4.2a5.252 5.252 0 01-2.4.6 5.25 5.25 0 01-3.3-1.05 2.85 2.85 0 01-3-.3c-.9 1.2-1.95 2.85-2.25 4.2-1.2-.9-1.2-3-1.2-4.65 0-2.7 2.1-4.95 4.8-5.25a5.398 5.398 0 014.95-3.45c.9 0 1.8.3 2.55.75a6.45 6.45 0 014.35-1.8c3.45 0 6.3 2.7 6.45 6a5.397 5.397 0 014.35 5.4c0 1.5-.6 3-1.5 3.9.15.45.15.75.15 1.2a4.798 4.798 0 01-1.95 3.9c0 .3.15.6.15.9 0 3-2.25 4.05-3.6 4.05s-2.25-.45-2.25-1.5l-.15-.3z" fill="#626465"/><path d="M132.753 83.55c0-.9.3-1.8.75-3a4.803 4.803 0 01-2.4-4.2c0-.45 0-.75.15-1.2h-.15c-2.4 0-4.5-1.8-4.5-4.2a5.252 5.252 0 01-2.4.6 5.25 5.25 0 01-3.3-1.05 2.85 2.85 0 01-3-.3c-.9 1.2-1.95 2.85-2.25 4.2-1.2-.9-1.2-3-1.2-4.65 0-2.7 2.1-4.95 4.8-5.25a5.398 5.398 0 014.95-3.45c.9 0 1.8.3 2.55.75a6.45 6.45 0 014.35-1.8c3.45 0 6.3 2.7 6.45 6a5.397 5.397 0 014.35 5.4c0 1.5-.6 3-1.5 3.9.15.45.15.75.15 1.2a4.798 4.798 0 01-1.95 3.9c0 .3.15.6.15.9 0 3-2.25 4.05-3.6 4.05s-2.25-.45-2.25-1.5l-.15-.3z" fill="url(#paint3_linear_1_10)"/><path fill-rule="evenodd" clip-rule="evenodd" d="M131.7 78.3h-.3c-2.25 0-4.2-1.8-4.5-4.2-.75.3-1.5.6-2.25.6-1.2 0-2.4-.45-3.3-1.2-.9.6-2.1.45-3-.3-.75 1.05-1.2 2.25-1.5 3.6l-.15-1.2c0-1.95.6-3.75 1.5-5.25.9.75 2.1.75 3 .3.9.75 1.95 1.2 3.3 1.2.75 0 1.5-.15 2.25-.6.3 2.4 2.1 4.2 4.5 4.2h.15c-.15.45 0 .75 0 1.2.15 1.8.3 1.8.15 1.8l.15-.15z" fill="url(#paint4_linear_1_10)"/><path d="M145.202 100.5c1.2 2.55 2.1 6.3 2.7 11.55h-43.95c.6-5.4 1.5-9.45 2.7-11.7 1.2-2.25 5.1-4.5 12-6.9 1.95 4.05 12.75 4.05 14.7 0 6.75 2.25 10.8 4.5 12 6.9l-.15.15z" fill="#B6B8B9"/><path d="M126.007 106.802a.753.753 0 01.75.75.75.75 0 11-.75-.75zm0-3.599a.752.752 0 01.75.75.75.75 0 11-.75-.75zm0-3.6a.75.75 0 110 1.499.75.75 0 010-1.5z" fill="#fff"/></g><path stroke="#89B8F6" stroke-linecap="round" d="M30.756 183.076h196.496"/><path fill-rule="evenodd" clip-rule="evenodd" d="M194.33 137.308c3.464 5.813 7.5 11.441 9.923 17.797a94.657 94.657 0 00-.317-2.245c-.615-3.961-1.379-7.893-2.182-11.821-.409-2-.842-3.992-1.285-5.984-.239-1.07-.475-2.141-.718-3.21-.059-.259-.11-.711-.184-1.17 2.356 7.729 4.627 15.463 6.288 23.377.218 1.039.404 2.076.556 3.111.052-.236.103-.473.159-.708.672-2.823 1.68-5.623 2.881-8.262.574-1.263 1.233-2.497 2.009-3.647.484-.717 1.626-1.57 2.067-2.304-2.415 4.429-3.287 9.971-4.681 14.786-.34 1.175-.683 2.348-1.018 3.523 2.102-4.217 5.365-7.681 9.901-9.183-5.491 3.628-8.784 9.981-11.003 16.479l-.024.231c.653-1.239 1.476-2.36 2.591-3.145 2.386-1.681 5.033-1.192 7.347.25-1.816-1.155-5.099-.103-6.628 1.071-1.094.84-2.029 1.967-2.841 3.067-.195.263-.46.571-.741.899a40.55 40.55 0 01-1.941 7.602c.15-.722.042-1.876.083-2.414l.013-.175c-.138.551-.271 1.095-.4 1.63.255-1.022.394-2.088.502-3.166.028-.464.055-.927.084-1.39a44.32 44.32 0 00-.107-2.646c-.217-.859-.46-1.669-.66-2.343-.724-2.432-1.785-4.761-3.09-6.935a27.386 27.386 0 00-4.263-5.404c-.887-.876-1.816-1.71-2.731-2.555-.332-.306-.923-1.057-1.435-1.449 3.727 2.055 7.564 4.278 10.283 7.589a82.023 82.023 0 00-1.032-3.614c-1.858-6-4.204-12.219-7.406-17.642z" fill="#89C5CC"/><path fill-rule="evenodd" clip-rule="evenodd" d="M198.053 170.212c0 6.663.528 12.065 7.61 12.065 7.083 0 7.611-5.402 7.611-12.065" fill="#666B72"/><defs><linearGradient id="paint0_linear_1_10" x1="136.276" y1="46.199" x2="136.276" y2="118.649" gradientUnits="userSpaceOnUse"><stop stop-color="#E7F7FF"/><stop offset="1" stop-color="#EDF5FF"/></linearGradient><linearGradient id="paint1_linear_1_10" x1="125.883" y1="56.834" x2="125.883" y2="126.976" gradientUnits="userSpaceOnUse"><stop stop-color="#F4F4F4"/><stop offset="1" stop-color="#F5F5F5"/></linearGradient><linearGradient id="paint2_linear_1_10" x1="125.403" y1="67.349" x2="125.403" y2="91.198" gradientUnits="userSpaceOnUse"><stop stop-color="#FFC62C" stop-opacity="0"/><stop offset="1" stop-color="#FF6663" stop-opacity=".1"/></linearGradient><linearGradient id="paint3_linear_1_10" x1="128.178" y1="60.001" x2="128.178" y2="85.351" gradientUnits="userSpaceOnUse"><stop stop-color="#1F1845" stop-opacity="0"/><stop offset="1" stop-opacity=".2"/></linearGradient><linearGradient id="paint4_linear_1_10" x1="126.302" y1="73.766" x2="118.703" y2="78.675" gradientUnits="userSpaceOnUse"><stop stop-opacity=".1"/><stop offset="1" stop-color="#FF6663" stop-opacity="0"/></linearGradient><filter id="filter0_d_1_10" x="68.506" y="23.375" width="112.286" height="169.286" filterUnits="userSpaceOnUse" color-interpolation-filters="sRGB"><feFlood flood-opacity="0" result="BackgroundImageFix"/><feColorMatrix in="SourceAlpha" values="0 0 0 0 0 0 0 0 0 0 0 0 0 0 0 0 0 0 127 0" result="hardAlpha"/><feOffset dy="2.571"/><feGaussianBlur stdDeviation="4.071"/><feColorMatrix values="0 0 0 0 0 0 0 0 0 0 0 0 0 0 0 0 0 0 0.12 0"/><feBlend in2="BackgroundImageFix" result="effect1_dropShadow_1_10"/><feBlend in="SourceGraphic" in2="effect1_dropShadow_1_10" result="shape"/></filter></defs></svg>