<svg width="12" height="12" viewBox="0 0 12 12" fill="none" xmlns="http://www.w3.org/2000/svg">
<path fill-rule="evenodd" clip-rule="evenodd" d="M7.84174 4.05496C7.93513 4.05749 8.02295 4.09083 8.09017 4.15489L8.41617 4.47364C8.56835 4.6221 8.5488 4.88122 8.37282 5.05369L5.51207 7.84769C5.37308 7.9835 5.11021 7.99327 4.96031 7.84769L3.63622 6.55467C3.46012 6.38256 3.44144 6.1237 3.59334 5.9755L3.91825 5.65702C4.07112 5.50856 4.33609 5.52663 4.51201 5.69804L5.23561 6.40482L7.49531 4.1973C7.5953 4.10059 7.72216 4.05234 7.84174 4.05496ZM7.1621 0.948821C6.97524 0.942275 6.77844 0.991237 6.57871 1.09606C6.14144 1.32568 5.81124 1.27856 5.42665 1.09606C5.22466 0.999964 5.02557 0.952137 4.8401 0.957548C4.53018 0.967323 4.25443 1.12852 4.04823 1.46471C3.7869 1.89098 3.47272 1.99798 3.04996 2.04161C2.44227 2.10323 2.05583 2.43697 2.03946 3.0515C2.02654 3.55116 1.80869 3.80044 1.46411 4.0497C0.968928 4.40728 0.802659 4.8887 1.09532 5.42965C1.33364 5.8684 1.27022 6.19262 1.09571 6.58093C0.846103 7.13923 0.940542 7.63874 1.46544 7.96088C1.8905 8.22263 1.99785 8.53516 2.04148 8.9589C2.10383 9.56661 2.43805 9.95239 3.05267 9.96957C3.55146 9.98371 3.8022 10.2001 4.05133 10.5455C4.42077 11.0595 4.88053 11.1999 5.43001 10.9156C5.87259 10.6871 6.19459 10.7358 6.58206 10.9156C7.14256 11.1768 7.59296 11.0595 7.96135 10.5455C8.21025 10.2001 8.46082 9.98369 8.95962 9.96957C9.57441 9.95246 9.9082 9.5667 9.97012 8.9589C10.0135 8.53516 10.1206 8.22263 10.5455 7.96088C11.0696 7.63892 11.1651 7.13926 10.9143 6.58093C10.7395 6.19262 10.6765 5.86838 10.9139 5.42965C11.2069 4.8887 11.0403 4.40728 10.5441 4.0497C10.1987 3.80044 9.98215 3.55118 9.9681 3.0515C9.95192 2.43697 9.56465 2.1033 8.95691 2.04161C8.53325 1.99797 8.22041 1.89088 7.95825 1.46471C7.75242 1.12861 7.47211 0.959993 7.1621 0.948821Z" fill="#3A88EF"/>
</svg>
