<svg width="25" height="25" viewBox="0 0 25 25" fill="none" xmlns="http://www.w3.org/2000/svg">
<path fill-rule="evenodd" clip-rule="evenodd" d="M15.6842 8.61504C15.8709 8.62011 16.0466 8.68679 16.181 8.81491L16.833 9.45241C17.1374 9.74932 17.0983 10.2676 16.7463 10.6125L11.0248 16.2005C10.7468 16.4721 10.2211 16.4917 9.92129 16.2005L7.2731 13.6145C6.92091 13.2703 6.88355 12.7525 7.18735 12.4561L7.83718 11.8192C8.1429 11.5222 8.67286 11.5584 9.0247 11.9012L10.4719 13.3148L14.9913 8.89972C15.1913 8.70632 15.445 8.60981 15.6842 8.61504ZM14.3249 2.40277C13.9511 2.38968 13.5575 2.4876 13.1581 2.69724C12.2836 3.15648 11.6231 3.06224 10.854 2.69724C10.45 2.50506 10.0518 2.4094 9.68087 2.42022C9.06103 2.43977 8.50953 2.76218 8.09713 3.43456C7.57446 4.28708 6.94611 4.50108 6.10059 4.58835C4.88521 4.71159 4.11233 5.37907 4.07959 6.60812C4.05375 7.60744 3.61805 8.106 2.92889 8.60452C1.93853 9.31968 1.60599 10.2825 2.1913 11.3644C2.66796 12.2419 2.54111 12.8904 2.19209 13.667C1.69288 14.7836 1.88175 15.7826 2.93156 16.4269C3.78167 16.9504 3.99638 17.5755 4.08363 18.4229C4.20832 19.6384 4.87677 20.4099 6.10601 20.4443C7.10359 20.4725 7.60507 20.9052 8.10334 21.5961C8.84222 22.6241 9.76173 22.905 10.8607 22.3362C11.7458 21.8794 12.3899 21.9767 13.1648 22.3362C14.2858 22.8587 15.1866 22.6241 15.9234 21.5961C16.4212 20.9054 16.9223 20.4725 17.9199 20.4443C19.1495 20.4101 19.8171 19.6385 19.9409 18.4229C20.0277 17.5755 20.2419 16.9504 21.0916 16.4269C22.14 15.783 22.3309 14.7836 21.8292 13.667C21.4797 12.8904 21.3536 12.2419 21.8284 11.3644C22.4144 10.2825 22.0813 9.31968 21.0889 8.60452C20.3981 8.106 19.965 7.60749 19.9369 6.60812C19.9045 5.37907 19.13 4.71173 17.9145 4.58835C17.0672 4.50108 16.4415 4.2869 15.9172 3.43456C15.5055 2.76234 14.9449 2.42511 14.3249 2.40277Z" fill="#84888E"/>
</svg>
