<svg width="49" height="48" viewBox="0 0 49 48" fill="none" xmlns="http://www.w3.org/2000/svg">
<ellipse cx="24.9326" cy="24" rx="24" ry="24" fill="#65D072"/>
<path d="M12.0098 36.9231L13.8657 30.0341C12.3689 27.3505 11.8934 24.219 12.5263 21.2141C13.1593 18.2093 14.8582 15.5327 17.3114 13.6756C19.7646 11.8184 22.8075 10.9052 25.8818 11.1036C28.956 11.302 31.8553 12.5987 34.0477 14.7557C36.2401 16.9126 37.5785 19.7852 37.8174 22.8463C38.0562 25.9074 37.1794 28.9517 35.3479 31.4205C33.5164 33.8893 30.8531 35.6171 27.8466 36.2867C24.8401 36.9564 21.6921 36.523 18.9804 35.0661L12.0098 36.9231ZM19.3165 32.4882L19.7476 32.7431C21.7117 33.9034 24.0059 34.3836 26.2725 34.1088C28.5391 33.8339 30.6508 32.8196 32.2785 31.2237C33.9063 29.6279 34.9586 27.5402 35.2716 25.286C35.5846 23.0318 35.1406 20.7378 34.0088 18.7614C32.877 16.785 31.121 15.2372 29.0145 14.3593C26.9079 13.4813 24.5692 13.3226 22.3627 13.9077C20.1561 14.4928 18.2058 15.789 16.8156 17.5942C15.4253 19.3994 14.6733 21.6123 14.6767 23.8879C14.6749 25.7748 15.1985 27.6252 16.1892 29.2331L16.4595 29.6773L15.422 33.5223L19.3165 32.4882Z" fill="white"/>
<path fill-rule="evenodd" clip-rule="evenodd" d="M29.8669 25.7972C29.6033 25.6008 29.2947 25.4625 28.9645 25.3929C28.6343 25.3234 28.2913 25.3243 27.9616 25.3958C27.4662 25.586 27.146 26.3043 26.8259 26.6635C26.7584 26.7496 26.6593 26.81 26.547 26.8333C26.4347 26.8566 26.3171 26.8413 26.2162 26.7902C24.4025 26.1338 22.8823 24.9301 21.9024 23.3746C21.8189 23.2775 21.7793 23.1542 21.7921 23.0308C21.8049 22.9073 21.869 22.7932 21.971 22.7126C22.328 22.386 22.5902 21.9814 22.7332 21.5364C22.7649 21.0456 22.6432 20.5566 22.3826 20.1279C22.1811 19.5268 21.7976 18.9917 21.2775 18.5856C21.0092 18.4741 20.7117 18.4367 20.421 18.4779C20.1302 18.5192 19.8586 18.6373 19.6388 18.818C19.2573 19.1221 18.9546 19.5014 18.7527 19.928C18.5509 20.3546 18.4552 20.8176 18.4727 21.2829C18.4739 21.5442 18.5097 21.8044 18.5794 22.0576C18.7564 22.666 19.0286 23.2473 19.3873 23.783C19.6461 24.1934 19.9285 24.5907 20.2333 24.9732C21.2238 26.2296 22.4688 27.2964 23.8993 28.1143C24.6171 28.5299 25.3843 28.8678 26.1857 29.1214C27.0182 29.4701 27.9374 29.6039 28.8457 29.5087C29.3631 29.4363 29.8534 29.2475 30.2734 28.9589C30.6934 28.6704 31.0301 28.2908 31.2541 27.8537C31.3856 27.5896 31.4256 27.2944 31.3684 27.0086C31.2312 26.424 30.3852 26.0789 29.8669 25.7972Z" fill="white"/>
</svg>
