<svg xmlns="http://www.w3.org/2000/svg" width="19.639" height="13.897" viewBox="0 0 19.639 13.897">
  <path id="Path_2163" data-name="Path 2163" d="M1016.667,873.3h-11.482a4.079,4.079,0,0,0-4.079,4.079v5.74a4.079,4.079,0,0,0,4.079,4.079h11.482a4.079,4.079,0,0,0,4.078-4.079v-5.74A4.079,4.079,0,0,0,1016.667,873.3Zm-2.759,7.228-5.37,2.561a.216.216,0,0,1-.308-.195v-5.283a.216.216,0,0,1,.313-.193l5.37,2.722A.216.216,0,0,1,1013.908,880.528Z" transform="translate(-1001.106 -873.3)" fill="#fff"/>
</svg>
